<?xml version="1.0" standalone="no"?>
<!DOCTYPE svg PUBLIC "-//W3C//DTD SVG 1.1//EN" 
  "http://www.w3.org/Graphics/SVG/1.1/DTD/svg11.dtd">
<svg width="128" height="128" viewBox="0 0 128 128"
     xmlns="http://www.w3.org/2000/svg" version="1.1">
<desc>'meat.blend', Cube, (Blender 2.79 (sub 0))</desc>
<polygon stroke="black" stroke-width="1" fill="rgb(204, 204, 204)" fill-opacity="0.25" points="11.000,106.000 17.000,127.000 46.000,127.000 44.000,106.000 " />
<polygon stroke="black" stroke-width="1" fill="rgb(204, 204, 204)" fill-opacity="0.25" points="44.000,106.000 46.000,127.000 79.000,127.000 80.000,106.000 " />
<polygon stroke="black" stroke-width="1" fill="rgb(204, 204, 204)" fill-opacity="0.25" points="80.000,106.000 79.000,127.000 109.000,127.000 115.000,106.000 " />
<polygon stroke="black" stroke-width="1" fill="rgb(204, 204, 204)" fill-opacity="0.25" points="11.000,106.000 17.000,127.000 46.000,127.000 44.000,106.000 " />
<polygon stroke="black" stroke-width="1" fill="rgb(204, 204, 204)" fill-opacity="0.25" points="44.000,106.000 46.000,127.000 79.000,127.000 80.000,106.000 " />
<polygon stroke="black" stroke-width="1" fill="rgb(204, 204, 204)" fill-opacity="0.25" points="80.000,106.000 79.000,127.000 109.000,127.000 115.000,106.000 " />
<polygon stroke="black" stroke-width="1" fill="rgb(204, 204, 204)" fill-opacity="0.25" points="5.000,41.000 17.000,41.000 17.000,21.000 5.000,28.000 " />
<polygon stroke="black" stroke-width="1" fill="rgb(204, 204, 204)" fill-opacity="0.25" points="79.000,49.000 80.000,71.000 115.000,71.000 107.000,49.000 " />
<polygon stroke="black" stroke-width="1" fill="rgb(204, 204, 204)" fill-opacity="0.25" points="80.000,71.000 80.000,106.000 115.000,106.000 115.000,71.000 " />
<polygon stroke="black" stroke-width="1" fill="rgb(204, 204, 204)" fill-opacity="0.25" points="46.000,49.000 44.000,71.000 80.000,71.000 79.000,49.000 " />
<polygon stroke="black" stroke-width="1" fill="rgb(204, 204, 204)" fill-opacity="0.25" points="44.000,71.000 44.000,106.000 80.000,106.000 80.000,71.000 " />
<polygon stroke="black" stroke-width="1" fill="rgb(204, 204, 204)" fill-opacity="0.25" points="18.000,49.000 11.000,71.000 44.000,71.000 46.000,49.000 " />
<polygon stroke="black" stroke-width="1" fill="rgb(204, 204, 204)" fill-opacity="0.25" points="11.000,71.000 11.000,106.000 44.000,106.000 44.000,71.000 " />
<polygon stroke="black" stroke-width="1" fill="rgb(204, 204, 204)" fill-opacity="0.25" points="79.000,49.000 80.000,71.000 115.000,71.000 107.000,49.000 " />
<polygon stroke="black" stroke-width="1" fill="rgb(204, 204, 204)" fill-opacity="0.25" points="80.000,71.000 80.000,106.000 115.000,106.000 115.000,71.000 " />
<polygon stroke="black" stroke-width="1" fill="rgb(204, 204, 204)" fill-opacity="0.25" points="46.000,49.000 44.000,71.000 80.000,71.000 79.000,49.000 " />
<polygon stroke="black" stroke-width="1" fill="rgb(204, 204, 204)" fill-opacity="0.25" points="44.000,71.000 44.000,106.000 80.000,106.000 80.000,71.000 " />
<polygon stroke="black" stroke-width="1" fill="rgb(204, 204, 204)" fill-opacity="0.25" points="18.000,49.000 11.000,71.000 44.000,71.000 46.000,49.000 " />
<polygon stroke="black" stroke-width="1" fill="rgb(204, 204, 204)" fill-opacity="0.25" points="11.000,71.000 11.000,106.000 44.000,106.000 44.000,71.000 " />
<polygon stroke="black" stroke-width="1" fill="rgb(204, 204, 204)" fill-opacity="0.25" points="86.000,24.000 72.000,1.000 56.000,24.000 " />
<polygon stroke="black" stroke-width="1" fill="rgb(204, 204, 204)" fill-opacity="0.25" points="86.000,24.000 101.000,1.000 72.000,1.000 " />
<polygon stroke="black" stroke-width="1" fill="rgb(204, 204, 204)" fill-opacity="0.25" points="86.000,24.000 117.000,24.000 101.000,1.000 " />
<polygon stroke="black" stroke-width="1" fill="rgb(204, 204, 204)" fill-opacity="0.25" points="86.000,24.000 101.000,47.000 117.000,24.000 " />
<polygon stroke="black" stroke-width="1" fill="rgb(204, 204, 204)" fill-opacity="0.25" points="86.000,24.000 72.000,47.000 101.000,47.000 " />
<polygon stroke="black" stroke-width="1" fill="rgb(204, 204, 204)" fill-opacity="0.25" points="86.000,24.000 56.000,24.000 72.000,47.000 " />
<polygon stroke="black" stroke-width="1" fill="rgb(204, 204, 204)" fill-opacity="0.25" points="86.000,24.000 117.000,24.000 101.000,1.000 " />
<polygon stroke="black" stroke-width="1" fill="rgb(204, 204, 204)" fill-opacity="0.25" points="86.000,24.000 101.000,1.000 72.000,1.000 " />
<polygon stroke="black" stroke-width="1" fill="rgb(204, 204, 204)" fill-opacity="0.25" points="86.000,24.000 72.000,1.000 56.000,24.000 " />
<polygon stroke="black" stroke-width="1" fill="rgb(204, 204, 204)" fill-opacity="0.25" points="86.000,24.000 56.000,24.000 72.000,47.000 " />
<polygon stroke="black" stroke-width="1" fill="rgb(204, 204, 204)" fill-opacity="0.25" points="86.000,24.000 72.000,47.000 101.000,47.000 " />
<polygon stroke="black" stroke-width="1" fill="rgb(204, 204, 204)" fill-opacity="0.25" points="86.000,24.000 101.000,47.000 117.000,24.000 " />
<polygon stroke="black" stroke-width="1" fill="rgb(204, 204, 204)" fill-opacity="0.25" points="17.000,21.000 5.000,28.000 5.000,41.000 17.000,41.000 " />
<polygon stroke="black" stroke-width="1" fill="rgb(204, 204, 204)" fill-opacity="0.25" points="17.000,21.000 17.000,9.000 8.000,7.000 12.000,16.000 " />
<polygon stroke="black" stroke-width="1" fill="rgb(204, 204, 204)" fill-opacity="0.25" points="17.000,21.000 17.000,41.000 29.000,41.000 29.000,28.000 " />
<polygon stroke="black" stroke-width="1" fill="rgb(204, 204, 204)" fill-opacity="0.25" points="29.000,41.000 29.000,28.000 17.000,21.000 17.000,41.000 " />
<polygon stroke="black" stroke-width="1" fill="rgb(204, 204, 204)" fill-opacity="0.25" points="5.000,28.000 17.000,21.000 12.000,16.000 1.000,21.000 " />
<polygon stroke="black" stroke-width="1" fill="rgb(204, 204, 204)" fill-opacity="0.25" points="17.000,9.000 17.000,21.000 22.000,16.000 25.000,7.000 " />
<polygon stroke="black" stroke-width="1" fill="rgb(204, 204, 204)" fill-opacity="0.25" points="5.000,28.000 17.000,21.000 12.000,16.000 1.000,21.000 " />
<polygon stroke="black" stroke-width="1" fill="rgb(204, 204, 204)" fill-opacity="0.25" points="1.000,21.000 12.000,16.000 8.000,7.000 " />
<polygon stroke="black" stroke-width="1" fill="rgb(204, 204, 204)" fill-opacity="0.25" points="25.000,7.000 22.000,16.000 33.000,21.000 " />
<polygon stroke="black" stroke-width="1" fill="rgb(204, 204, 204)" fill-opacity="0.25" points="17.000,21.000 29.000,28.000 33.000,21.000 22.000,16.000 " />
<polygon stroke="black" stroke-width="1" fill="rgb(204, 204, 204)" fill-opacity="0.25" points="17.000,9.000 17.000,21.000 22.000,16.000 25.000,7.000 " />
<polygon stroke="black" stroke-width="1" fill="rgb(204, 204, 204)" fill-opacity="0.25" points="12.000,16.000 8.000,7.000 1.000,21.000 " />
<polygon stroke="black" stroke-width="1" fill="rgb(204, 204, 204)" fill-opacity="0.25" points="33.000,21.000 25.000,7.000 22.000,16.000 " />
<polygon stroke="black" stroke-width="1" fill="rgb(204, 204, 204)" fill-opacity="0.25" points="17.000,21.000 17.000,9.000 8.000,7.000 12.000,16.000 " />
<polygon stroke="black" stroke-width="1" fill="rgb(204, 204, 204)" fill-opacity="0.25" points="17.000,21.000 29.000,28.000 33.000,21.000 22.000,16.000 " />
<polygon stroke="black" stroke-width="1" fill="rgb(204, 204, 204)" fill-opacity="0.25" points="5.000,41.000 17.000,41.000 17.000,21.000 5.000,28.000 " />
<polygon stroke="black" stroke-width="1" fill="rgb(204, 204, 204)" fill-opacity="0.25" points="17.000,21.000 5.000,28.000 5.000,41.000 17.000,41.000 " />
<polygon stroke="black" stroke-width="1" fill="rgb(204, 204, 204)" fill-opacity="0.25" points="17.000,21.000 17.000,9.000 8.000,7.000 12.000,16.000 " />
<polygon stroke="black" stroke-width="1" fill="rgb(204, 204, 204)" fill-opacity="0.25" points="17.000,21.000 17.000,41.000 29.000,41.000 29.000,28.000 " />
<polygon stroke="black" stroke-width="1" fill="rgb(204, 204, 204)" fill-opacity="0.25" points="29.000,41.000 29.000,28.000 17.000,21.000 17.000,41.000 " />
<polygon stroke="black" stroke-width="1" fill="rgb(204, 204, 204)" fill-opacity="0.25" points="5.000,28.000 17.000,21.000 12.000,16.000 1.000,21.000 " />
<polygon stroke="black" stroke-width="1" fill="rgb(204, 204, 204)" fill-opacity="0.25" points="17.000,9.000 17.000,21.000 22.000,16.000 25.000,7.000 " />
<polygon stroke="black" stroke-width="1" fill="rgb(204, 204, 204)" fill-opacity="0.25" points="5.000,28.000 17.000,21.000 12.000,16.000 1.000,21.000 " />
<polygon stroke="black" stroke-width="1" fill="rgb(204, 204, 204)" fill-opacity="0.25" points="1.000,21.000 12.000,16.000 8.000,7.000 " />
<polygon stroke="black" stroke-width="1" fill="rgb(204, 204, 204)" fill-opacity="0.25" points="25.000,7.000 22.000,16.000 33.000,21.000 " />
<polygon stroke="black" stroke-width="1" fill="rgb(204, 204, 204)" fill-opacity="0.25" points="17.000,21.000 29.000,28.000 33.000,21.000 22.000,16.000 " />
<polygon stroke="black" stroke-width="1" fill="rgb(204, 204, 204)" fill-opacity="0.25" points="17.000,9.000 17.000,21.000 22.000,16.000 25.000,7.000 " />
<polygon stroke="black" stroke-width="1" fill="rgb(204, 204, 204)" fill-opacity="0.25" points="12.000,16.000 8.000,7.000 1.000,21.000 " />
<polygon stroke="black" stroke-width="1" fill="rgb(204, 204, 204)" fill-opacity="0.25" points="33.000,21.000 25.000,7.000 22.000,16.000 " />
<polygon stroke="black" stroke-width="1" fill="rgb(204, 204, 204)" fill-opacity="0.25" points="17.000,21.000 17.000,9.000 8.000,7.000 12.000,16.000 " />
<polygon stroke="black" stroke-width="1" fill="rgb(204, 204, 204)" fill-opacity="0.25" points="17.000,21.000 29.000,28.000 33.000,21.000 22.000,16.000 " />

</svg>
