<?xml version="1.0" standalone="no"?>
<!DOCTYPE svg PUBLIC "-//W3C//DTD SVG 1.1//EN" 
  "http://www.w3.org/Graphics/SVG/1.1/DTD/svg11.dtd">
<svg width="128" height="128" viewBox="0 0 128 128"
     xmlns="http://www.w3.org/2000/svg" version="1.1">
<desc>'potion.blend', Cube, (Blender 2.79 (sub 0))</desc>
<polygon stroke="black" stroke-width="1" fill="rgb(204, 204, 204)" fill-opacity="0.25" points="32.000,72.000 39.000,45.000 1.000,45.000 8.000,72.000 " />
<polygon stroke="black" stroke-width="1" fill="rgb(204, 204, 204)" fill-opacity="0.25" points="39.000,45.000 27.000,1.000 15.000,1.000 1.000,45.000 " />
<polygon stroke="black" stroke-width="1" fill="rgb(204, 204, 204)" fill-opacity="0.25" points="32.000,72.000 39.000,45.000 1.000,45.000 8.000,72.000 " />
<polygon stroke="black" stroke-width="1" fill="rgb(204, 204, 204)" fill-opacity="0.25" points="39.000,45.000 27.000,1.000 15.000,1.000 1.000,45.000 " />
<polygon stroke="black" stroke-width="1" fill="rgb(204, 204, 204)" fill-opacity="0.25" points="32.000,72.000 39.000,45.000 1.000,45.000 8.000,72.000 " />
<polygon stroke="black" stroke-width="1" fill="rgb(204, 204, 204)" fill-opacity="0.25" points="39.000,45.000 27.000,1.000 15.000,1.000 1.000,45.000 " />
<polygon stroke="black" stroke-width="1" fill="rgb(204, 204, 204)" fill-opacity="0.25" points="32.000,72.000 39.000,45.000 1.000,45.000 8.000,72.000 " />
<polygon stroke="black" stroke-width="1" fill="rgb(204, 204, 204)" fill-opacity="0.25" points="39.000,45.000 27.000,1.000 15.000,1.000 1.000,45.000 " />
<polygon stroke="black" stroke-width="1" fill="rgb(204, 204, 204)" fill-opacity="0.25" points="57.000,89.000 47.000,89.000 47.000,107.000 57.000,107.000 " />
<polygon stroke="black" stroke-width="1" fill="rgb(204, 204, 204)" fill-opacity="0.25" points="32.000,72.000 39.000,45.000 1.000,45.000 8.000,72.000 " />
<polygon stroke="black" stroke-width="1" fill="rgb(204, 204, 204)" fill-opacity="0.25" points="39.000,45.000 27.000,1.000 15.000,1.000 1.000,45.000 " />
<polygon stroke="black" stroke-width="1" fill="rgb(204, 204, 204)" fill-opacity="0.25" points="32.000,72.000 39.000,45.000 1.000,45.000 8.000,72.000 " />
<polygon stroke="black" stroke-width="1" fill="rgb(204, 204, 204)" fill-opacity="0.25" points="39.000,45.000 27.000,1.000 15.000,1.000 1.000,45.000 " />
<polygon stroke="black" stroke-width="1" fill="rgb(204, 204, 204)" fill-opacity="0.25" points="21.000,124.000 42.000,112.000 42.000,89.000 21.000,77.000 1.000,89.000 1.000,112.000 " />
<polygon stroke="black" stroke-width="1" fill="rgb(204, 204, 204)" fill-opacity="0.25" points="57.000,107.000 47.000,107.000 45.000,111.000 59.000,111.000 " />
<polygon stroke="black" stroke-width="1" fill="rgb(204, 204, 204)" fill-opacity="0.25" points="57.000,89.000 47.000,89.000 47.000,107.000 57.000,107.000 " />
<polygon stroke="black" stroke-width="1" fill="rgb(204, 204, 204)" fill-opacity="0.25" points="57.000,89.000 47.000,89.000 47.000,107.000 57.000,107.000 " />
<polygon stroke="black" stroke-width="1" fill="rgb(204, 204, 204)" fill-opacity="0.25" points="57.000,89.000 47.000,89.000 47.000,107.000 57.000,107.000 " />
<polygon stroke="black" stroke-width="1" fill="rgb(204, 204, 204)" fill-opacity="0.25" points="57.000,89.000 47.000,89.000 47.000,107.000 57.000,107.000 " />
<polygon stroke="black" stroke-width="1" fill="rgb(204, 204, 204)" fill-opacity="0.25" points="57.000,89.000 47.000,89.000 47.000,107.000 57.000,107.000 " />
<polygon stroke="black" stroke-width="1" fill="rgb(204, 204, 204)" fill-opacity="0.25" points="59.000,111.000 45.000,111.000 43.000,119.000 61.000,119.000 " />
<polygon stroke="black" stroke-width="1" fill="rgb(204, 204, 204)" fill-opacity="0.25" points="57.000,107.000 47.000,107.000 45.000,111.000 59.000,111.000 " />
<polygon stroke="black" stroke-width="1" fill="rgb(204, 204, 204)" fill-opacity="0.25" points="57.000,107.000 47.000,107.000 45.000,111.000 59.000,111.000 " />
<polygon stroke="black" stroke-width="1" fill="rgb(204, 204, 204)" fill-opacity="0.25" points="57.000,107.000 47.000,107.000 45.000,111.000 59.000,111.000 " />
<polygon stroke="black" stroke-width="1" fill="rgb(204, 204, 204)" fill-opacity="0.25" points="57.000,107.000 47.000,107.000 45.000,111.000 59.000,111.000 " />
<polygon stroke="black" stroke-width="1" fill="rgb(204, 204, 204)" fill-opacity="0.25" points="57.000,107.000 47.000,107.000 45.000,111.000 59.000,111.000 " />
<polygon stroke="black" stroke-width="1" fill="rgb(204, 204, 204)" fill-opacity="0.25" points="41.000,56.000 50.000,56.000 50.000,27.000 41.000,27.000 " />
<polygon stroke="black" stroke-width="1" fill="rgb(204, 204, 204)" fill-opacity="0.25" points="59.000,111.000 45.000,111.000 43.000,119.000 61.000,119.000 " />
<polygon stroke="black" stroke-width="1" fill="rgb(204, 204, 204)" fill-opacity="0.25" points="59.000,111.000 45.000,111.000 43.000,119.000 61.000,119.000 " />
<polygon stroke="black" stroke-width="1" fill="rgb(204, 204, 204)" fill-opacity="0.25" points="59.000,111.000 45.000,111.000 43.000,119.000 61.000,119.000 " />
<polygon stroke="black" stroke-width="1" fill="rgb(204, 204, 204)" fill-opacity="0.25" points="59.000,111.000 45.000,111.000 43.000,119.000 61.000,119.000 " />
<polygon stroke="black" stroke-width="1" fill="rgb(204, 204, 204)" fill-opacity="0.25" points="59.000,111.000 45.000,111.000 43.000,119.000 61.000,119.000 " />
<polygon stroke="black" stroke-width="1" fill="rgb(204, 204, 204)" fill-opacity="0.25" points="48.000,126.000 56.000,126.000 61.000,119.000 43.000,119.000 " />
<polygon stroke="black" stroke-width="1" fill="rgb(204, 204, 204)" fill-opacity="0.25" points="48.000,126.000 56.000,126.000 61.000,119.000 43.000,119.000 " />
<polygon stroke="black" stroke-width="1" fill="rgb(204, 204, 204)" fill-opacity="0.25" points="48.000,126.000 56.000,126.000 61.000,119.000 43.000,119.000 " />
<polygon stroke="black" stroke-width="1" fill="rgb(204, 204, 204)" fill-opacity="0.25" points="48.000,126.000 56.000,126.000 61.000,119.000 43.000,119.000 " />
<polygon stroke="black" stroke-width="1" fill="rgb(204, 204, 204)" fill-opacity="0.25" points="48.000,126.000 56.000,126.000 61.000,119.000 43.000,119.000 " />
<polygon stroke="black" stroke-width="1" fill="rgb(204, 204, 204)" fill-opacity="0.25" points="48.000,126.000 56.000,126.000 61.000,119.000 43.000,119.000 " />
<polygon stroke="black" stroke-width="1" fill="rgb(204, 204, 204)" fill-opacity="0.25" points="121.000,97.000 98.000,92.000 98.000,126.000 121.000,121.000 " />
<polygon stroke="black" stroke-width="1" fill="rgb(204, 204, 204)" fill-opacity="0.25" points="41.000,56.000 50.000,56.000 50.000,27.000 41.000,27.000 " />
<polygon stroke="black" stroke-width="1" fill="rgb(204, 204, 204)" fill-opacity="0.25" points="41.000,56.000 50.000,56.000 50.000,27.000 41.000,27.000 " />
<polygon stroke="black" stroke-width="1" fill="rgb(204, 204, 204)" fill-opacity="0.25" points="41.000,56.000 50.000,56.000 50.000,27.000 41.000,27.000 " />
<polygon stroke="black" stroke-width="1" fill="rgb(204, 204, 204)" fill-opacity="0.25" points="41.000,56.000 50.000,56.000 50.000,27.000 41.000,27.000 " />
<polygon stroke="black" stroke-width="1" fill="rgb(204, 204, 204)" fill-opacity="0.25" points="41.000,56.000 50.000,56.000 50.000,27.000 41.000,27.000 " />
<polygon stroke="black" stroke-width="1" fill="rgb(204, 204, 204)" fill-opacity="0.25" points="98.000,92.000 76.000,97.000 76.000,121.000 98.000,126.000 " />
<polygon stroke="black" stroke-width="1" fill="rgb(204, 204, 204)" fill-opacity="0.25" points="121.000,97.000 98.000,92.000 98.000,126.000 121.000,121.000 " />
<polygon stroke="black" stroke-width="1" fill="rgb(204, 204, 204)" fill-opacity="0.25" points="121.000,97.000 98.000,92.000 98.000,126.000 121.000,121.000 " />
<polygon stroke="black" stroke-width="1" fill="rgb(204, 204, 204)" fill-opacity="0.25" points="121.000,97.000 98.000,92.000 98.000,126.000 121.000,121.000 " />
<polygon stroke="black" stroke-width="1" fill="rgb(204, 204, 204)" fill-opacity="0.25" points="76.000,121.000 98.000,126.000 98.000,92.000 76.000,97.000 " />
<polygon stroke="black" stroke-width="1" fill="rgb(204, 204, 204)" fill-opacity="0.25" points="121.000,97.000 98.000,92.000 98.000,126.000 121.000,121.000 " />
<polygon stroke="black" stroke-width="1" fill="rgb(204, 204, 204)" fill-opacity="0.25" points="115.000,90.000 126.000,70.000 115.000,51.000 92.000,51.000 81.000,70.000 92.000,90.000 " />
<polygon stroke="black" stroke-width="1" fill="rgb(204, 204, 204)" fill-opacity="0.25" points="98.000,126.000 121.000,121.000 121.000,97.000 98.000,92.000 " />
<polygon stroke="black" stroke-width="1" fill="rgb(204, 204, 204)" fill-opacity="0.25" points="98.000,92.000 76.000,97.000 76.000,121.000 98.000,126.000 " />
<polygon stroke="black" stroke-width="1" fill="rgb(204, 204, 204)" fill-opacity="0.25" points="98.000,92.000 76.000,97.000 76.000,121.000 98.000,126.000 " />
<polygon stroke="black" stroke-width="1" fill="rgb(204, 204, 204)" fill-opacity="0.25" points="98.000,92.000 76.000,97.000 76.000,121.000 98.000,126.000 " />
<polygon stroke="black" stroke-width="1" fill="rgb(204, 204, 204)" fill-opacity="0.25" points="98.000,92.000 76.000,97.000 76.000,121.000 98.000,126.000 " />
<polygon stroke="black" stroke-width="1" fill="rgb(204, 204, 204)" fill-opacity="0.25" points="41.000,27.000 50.000,27.000 56.000,5.000 34.000,5.000 " />
<polygon stroke="black" stroke-width="1" fill="rgb(204, 204, 204)" fill-opacity="0.25" points="41.000,27.000 50.000,27.000 56.000,5.000 34.000,5.000 " />
<polygon stroke="black" stroke-width="1" fill="rgb(204, 204, 204)" fill-opacity="0.25" points="41.000,27.000 50.000,27.000 56.000,5.000 34.000,5.000 " />
<polygon stroke="black" stroke-width="1" fill="rgb(204, 204, 204)" fill-opacity="0.25" points="41.000,27.000 50.000,27.000 56.000,5.000 34.000,5.000 " />
<polygon stroke="black" stroke-width="1" fill="rgb(204, 204, 204)" fill-opacity="0.25" points="41.000,27.000 50.000,27.000 56.000,5.000 34.000,5.000 " />
<polygon stroke="black" stroke-width="1" fill="rgb(204, 204, 204)" fill-opacity="0.25" points="41.000,27.000 50.000,27.000 56.000,5.000 34.000,5.000 " />
<polygon stroke="black" stroke-width="1" fill="rgb(204, 204, 204)" fill-opacity="0.25" points="83.000,31.000 93.000,49.000 114.000,49.000 125.000,31.000 114.000,12.000 93.000,12.000 " />
<polygon stroke="black" stroke-width="1" fill="rgb(204, 204, 204)" fill-opacity="0.25" points="73.000,31.000 75.000,18.000 64.000,18.000 66.000,31.000 " />
<polygon stroke="black" stroke-width="1" fill="rgb(204, 204, 204)" fill-opacity="0.25" points="73.000,31.000 75.000,18.000 64.000,18.000 66.000,31.000 " />
<polygon stroke="black" stroke-width="1" fill="rgb(204, 204, 204)" fill-opacity="0.25" points="73.000,31.000 75.000,18.000 64.000,18.000 66.000,31.000 " />
<polygon stroke="black" stroke-width="1" fill="rgb(204, 204, 204)" fill-opacity="0.25" points="73.000,31.000 75.000,18.000 64.000,18.000 66.000,31.000 " />
<polygon stroke="black" stroke-width="1" fill="rgb(204, 204, 204)" fill-opacity="0.25" points="73.000,49.000 78.000,40.000 73.000,32.000 65.000,32.000 60.000,40.000 65.000,49.000 " />
<polygon stroke="black" stroke-width="1" fill="rgb(204, 204, 204)" fill-opacity="0.25" points="73.000,31.000 75.000,18.000 64.000,18.000 66.000,31.000 " />
<polygon stroke="black" stroke-width="1" fill="rgb(204, 204, 204)" fill-opacity="0.25" points="73.000,31.000 75.000,18.000 64.000,18.000 66.000,31.000 " />
<polygon stroke="black" stroke-width="1" fill="rgb(204, 204, 204)" fill-opacity="0.25" points="77.000,59.000 73.000,52.000 65.000,52.000 61.000,59.000 65.000,66.000 73.000,66.000 " />

</svg>
