<?xml version="1.0" standalone="no"?>
<!DOCTYPE svg PUBLIC "-//W3C//DTD SVG 1.1//EN" 
  "http://www.w3.org/Graphics/SVG/1.1/DTD/svg11.dtd">
<svg width="128" height="128" viewBox="0 0 128 128"
     xmlns="http://www.w3.org/2000/svg" version="1.1">
<desc>'treasure.blend', Cube, (Blender 2.79 (sub 0))</desc>
<polygon stroke="black" stroke-width="1" fill="rgb(204, 204, 204)" fill-opacity="0.25" points="86.000,65.000 86.000,44.000 61.000,44.000 61.000,65.000 " />
<polygon stroke="black" stroke-width="1" fill="rgb(204, 204, 204)" fill-opacity="0.25" points="60.000,7.000 54.000,7.000 54.000,12.000 60.000,12.000 " />
<polygon stroke="black" stroke-width="1" fill="rgb(204, 204, 204)" fill-opacity="0.25" points="93.000,127.000 93.000,94.000 88.000,94.000 83.000,94.000 78.000,94.000 73.000,94.000 68.000,94.000 63.000,94.000 58.000,94.000 53.000,94.000 53.000,127.000 " />
<polygon stroke="black" stroke-width="1" fill="rgb(204, 204, 204)" fill-opacity="0.25" points="50.000,92.000 50.000,59.000 44.000,59.000 38.000,59.000 32.000,59.000 26.000,59.000 20.000,59.000 14.000,59.000 8.000,59.000 2.000,59.000 2.000,92.000 " />
<polygon stroke="black" stroke-width="1" fill="rgb(204, 204, 204)" fill-opacity="0.25" points="93.000,127.000 93.000,94.000 88.000,94.000 83.000,94.000 78.000,94.000 73.000,94.000 68.000,94.000 63.000,94.000 58.000,94.000 53.000,94.000 53.000,127.000 " />
<polygon stroke="black" stroke-width="1" fill="rgb(204, 204, 204)" fill-opacity="0.25" points="2.000,94.000 2.000,127.000 50.000,127.000 50.000,94.000 44.000,94.000 38.000,94.000 32.000,94.000 26.000,94.000 20.000,94.000 14.000,94.000 8.000,94.000 " />
<polygon stroke="black" stroke-width="1" fill="rgb(204, 204, 204)" fill-opacity="0.25" points="60.000,27.000 54.000,27.000 54.000,32.000 60.000,32.000 " />
<polygon stroke="black" stroke-width="1" fill="rgb(204, 204, 204)" fill-opacity="0.25" points="72.000,27.000 66.000,27.000 66.000,32.000 72.000,32.000 " />
<polygon stroke="black" stroke-width="1" fill="rgb(204, 204, 204)" fill-opacity="0.25" points="84.000,27.000 78.000,27.000 78.000,32.000 84.000,32.000 " />
<polygon stroke="black" stroke-width="1" fill="rgb(204, 204, 204)" fill-opacity="0.25" points="96.000,37.000 90.000,37.000 90.000,42.000 96.000,42.000 " />
<polygon stroke="black" stroke-width="1" fill="rgb(204, 204, 204)" fill-opacity="0.25" points="84.000,17.000 78.000,17.000 78.000,22.000 84.000,22.000 " />
<polygon stroke="black" stroke-width="1" fill="rgb(204, 204, 204)" fill-opacity="0.25" points="60.000,37.000 54.000,37.000 54.000,42.000 60.000,42.000 " />
<polygon stroke="black" stroke-width="1" fill="rgb(204, 204, 204)" fill-opacity="0.25" points="84.000,37.000 78.000,37.000 78.000,42.000 84.000,42.000 " />
<polygon stroke="black" stroke-width="1" fill="rgb(204, 204, 204)" fill-opacity="0.25" points="84.000,2.000 78.000,2.000 78.000,7.000 84.000,7.000 " />
<polygon stroke="black" stroke-width="1" fill="rgb(204, 204, 204)" fill-opacity="0.25" points="102.000,7.000 96.000,7.000 96.000,12.000 102.000,12.000 " />
<polygon stroke="black" stroke-width="1" fill="rgb(204, 204, 204)" fill-opacity="0.25" points="72.000,7.000 66.000,7.000 66.000,12.000 72.000,12.000 " />
<polygon stroke="black" stroke-width="1" fill="rgb(204, 204, 204)" fill-opacity="0.25" points="72.000,17.000 66.000,17.000 66.000,22.000 72.000,22.000 " />
<polygon stroke="black" stroke-width="1" fill="rgb(204, 204, 204)" fill-opacity="0.25" points="72.000,37.000 66.000,37.000 66.000,42.000 72.000,42.000 " />
<polygon stroke="black" stroke-width="1" fill="rgb(204, 204, 204)" fill-opacity="0.25" points="60.000,17.000 54.000,17.000 54.000,22.000 60.000,22.000 " />
<polygon stroke="black" stroke-width="1" fill="rgb(204, 204, 204)" fill-opacity="0.25" points="96.000,27.000 90.000,27.000 90.000,32.000 96.000,32.000 " />
<polygon stroke="black" stroke-width="1" fill="rgb(204, 204, 204)" fill-opacity="0.25" points="96.000,17.000 90.000,17.000 90.000,22.000 96.000,22.000 " />
<polygon stroke="black" stroke-width="1" fill="rgb(204, 204, 204)" fill-opacity="0.25" points="96.000,7.000 90.000,7.000 90.000,12.000 96.000,12.000 " />
<polygon stroke="black" stroke-width="1" fill="rgb(204, 204, 204)" fill-opacity="0.25" points="90.000,7.000 84.000,7.000 84.000,12.000 90.000,12.000 " />
<polygon stroke="black" stroke-width="1" fill="rgb(204, 204, 204)" fill-opacity="0.25" points="90.000,2.000 84.000,2.000 84.000,7.000 90.000,7.000 " />
<polygon stroke="black" stroke-width="1" fill="rgb(204, 204, 204)" fill-opacity="0.25" points="84.000,7.000 78.000,7.000 78.000,12.000 84.000,12.000 " />
<polygon stroke="black" stroke-width="1" fill="rgb(204, 204, 204)" fill-opacity="0.25" points="102.000,2.000 96.000,2.000 96.000,7.000 102.000,7.000 " />
<polygon stroke="black" stroke-width="1" fill="rgb(204, 204, 204)" fill-opacity="0.25" points="96.000,2.000 90.000,2.000 90.000,7.000 96.000,7.000 " />
<polygon stroke="black" stroke-width="1" fill="rgb(204, 204, 204)" fill-opacity="0.25" points="102.000,17.000 96.000,17.000 96.000,22.000 102.000,22.000 " />
<polygon stroke="black" stroke-width="1" fill="rgb(204, 204, 204)" fill-opacity="0.25" points="102.000,12.000 96.000,12.000 96.000,17.000 102.000,17.000 " />
<polygon stroke="black" stroke-width="1" fill="rgb(204, 204, 204)" fill-opacity="0.25" points="96.000,12.000 90.000,12.000 90.000,17.000 96.000,17.000 " />
<polygon stroke="black" stroke-width="1" fill="rgb(204, 204, 204)" fill-opacity="0.25" points="102.000,27.000 96.000,27.000 96.000,32.000 102.000,32.000 " />
<polygon stroke="black" stroke-width="1" fill="rgb(204, 204, 204)" fill-opacity="0.25" points="102.000,22.000 96.000,22.000 96.000,27.000 102.000,27.000 " />
<polygon stroke="black" stroke-width="1" fill="rgb(204, 204, 204)" fill-opacity="0.25" points="96.000,22.000 90.000,22.000 90.000,27.000 96.000,27.000 " />
<polygon stroke="black" stroke-width="1" fill="rgb(204, 204, 204)" fill-opacity="0.25" points="66.000,17.000 60.000,17.000 60.000,22.000 66.000,22.000 " />
<polygon stroke="black" stroke-width="1" fill="rgb(204, 204, 204)" fill-opacity="0.25" points="66.000,12.000 60.000,12.000 60.000,17.000 66.000,17.000 " />
<polygon stroke="black" stroke-width="1" fill="rgb(204, 204, 204)" fill-opacity="0.25" points="60.000,12.000 54.000,12.000 54.000,17.000 60.000,17.000 " />
<polygon stroke="black" stroke-width="1" fill="rgb(204, 204, 204)" fill-opacity="0.25" points="78.000,37.000 72.000,37.000 72.000,42.000 78.000,42.000 " />
<polygon stroke="black" stroke-width="1" fill="rgb(204, 204, 204)" fill-opacity="0.25" points="78.000,32.000 72.000,32.000 72.000,37.000 78.000,37.000 " />
<polygon stroke="black" stroke-width="1" fill="rgb(204, 204, 204)" fill-opacity="0.25" points="72.000,32.000 66.000,32.000 66.000,37.000 72.000,37.000 " />
<polygon stroke="black" stroke-width="1" fill="rgb(204, 204, 204)" fill-opacity="0.25" points="78.000,17.000 72.000,17.000 72.000,22.000 78.000,22.000 " />
<polygon stroke="black" stroke-width="1" fill="rgb(204, 204, 204)" fill-opacity="0.25" points="78.000,12.000 72.000,12.000 72.000,17.000 78.000,17.000 " />
<polygon stroke="black" stroke-width="1" fill="rgb(204, 204, 204)" fill-opacity="0.25" points="72.000,12.000 66.000,12.000 66.000,17.000 72.000,17.000 " />
<polygon stroke="black" stroke-width="1" fill="rgb(204, 204, 204)" fill-opacity="0.25" points="78.000,7.000 72.000,7.000 72.000,12.000 78.000,12.000 " />
<polygon stroke="black" stroke-width="1" fill="rgb(204, 204, 204)" fill-opacity="0.25" points="78.000,2.000 72.000,2.000 72.000,7.000 78.000,7.000 " />
<polygon stroke="black" stroke-width="1" fill="rgb(204, 204, 204)" fill-opacity="0.25" points="72.000,2.000 66.000,2.000 66.000,7.000 72.000,7.000 " />
<polygon stroke="black" stroke-width="1" fill="rgb(204, 204, 204)" fill-opacity="0.25" points="90.000,37.000 84.000,37.000 84.000,42.000 90.000,42.000 " />
<polygon stroke="black" stroke-width="1" fill="rgb(204, 204, 204)" fill-opacity="0.25" points="90.000,32.000 84.000,32.000 84.000,37.000 90.000,37.000 " />
<polygon stroke="black" stroke-width="1" fill="rgb(204, 204, 204)" fill-opacity="0.25" points="84.000,32.000 78.000,32.000 78.000,37.000 84.000,37.000 " />
<polygon stroke="black" stroke-width="1" fill="rgb(204, 204, 204)" fill-opacity="0.25" points="66.000,37.000 60.000,37.000 60.000,42.000 66.000,42.000 " />
<polygon stroke="black" stroke-width="1" fill="rgb(204, 204, 204)" fill-opacity="0.25" points="66.000,32.000 60.000,32.000 60.000,37.000 66.000,37.000 " />
<polygon stroke="black" stroke-width="1" fill="rgb(204, 204, 204)" fill-opacity="0.25" points="60.000,32.000 54.000,32.000 54.000,37.000 60.000,37.000 " />
<polygon stroke="black" stroke-width="1" fill="rgb(204, 204, 204)" fill-opacity="0.25" points="90.000,17.000 84.000,17.000 84.000,22.000 90.000,22.000 " />
<polygon stroke="black" stroke-width="1" fill="rgb(204, 204, 204)" fill-opacity="0.25" points="90.000,12.000 84.000,12.000 84.000,17.000 90.000,17.000 " />
<polygon stroke="black" stroke-width="1" fill="rgb(204, 204, 204)" fill-opacity="0.25" points="84.000,12.000 78.000,12.000 78.000,17.000 84.000,17.000 " />
<polygon stroke="black" stroke-width="1" fill="rgb(204, 204, 204)" fill-opacity="0.25" points="102.000,37.000 96.000,37.000 96.000,42.000 102.000,42.000 " />
<polygon stroke="black" stroke-width="1" fill="rgb(204, 204, 204)" fill-opacity="0.25" points="102.000,32.000 96.000,32.000 96.000,37.000 102.000,37.000 " />
<polygon stroke="black" stroke-width="1" fill="rgb(204, 204, 204)" fill-opacity="0.25" points="96.000,32.000 90.000,32.000 90.000,37.000 96.000,37.000 " />
<polygon stroke="black" stroke-width="1" fill="rgb(204, 204, 204)" fill-opacity="0.25" points="90.000,27.000 84.000,27.000 84.000,32.000 90.000,32.000 " />
<polygon stroke="black" stroke-width="1" fill="rgb(204, 204, 204)" fill-opacity="0.25" points="90.000,22.000 84.000,22.000 84.000,27.000 90.000,27.000 " />
<polygon stroke="black" stroke-width="1" fill="rgb(204, 204, 204)" fill-opacity="0.25" points="84.000,22.000 78.000,22.000 78.000,27.000 84.000,27.000 " />
<polygon stroke="black" stroke-width="1" fill="rgb(204, 204, 204)" fill-opacity="0.25" points="78.000,27.000 72.000,27.000 72.000,32.000 78.000,32.000 " />
<polygon stroke="black" stroke-width="1" fill="rgb(204, 204, 204)" fill-opacity="0.25" points="78.000,22.000 72.000,22.000 72.000,27.000 78.000,27.000 " />
<polygon stroke="black" stroke-width="1" fill="rgb(204, 204, 204)" fill-opacity="0.25" points="72.000,22.000 66.000,22.000 66.000,27.000 72.000,27.000 " />
<polygon stroke="black" stroke-width="1" fill="rgb(204, 204, 204)" fill-opacity="0.25" points="66.000,27.000 60.000,27.000 60.000,32.000 66.000,32.000 " />
<polygon stroke="black" stroke-width="1" fill="rgb(204, 204, 204)" fill-opacity="0.25" points="66.000,22.000 60.000,22.000 60.000,27.000 66.000,27.000 " />
<polygon stroke="black" stroke-width="1" fill="rgb(204, 204, 204)" fill-opacity="0.25" points="60.000,22.000 54.000,22.000 54.000,27.000 60.000,27.000 " />
<polygon stroke="black" stroke-width="1" fill="rgb(204, 204, 204)" fill-opacity="0.25" points="66.000,7.000 60.000,7.000 60.000,12.000 66.000,12.000 " />
<polygon stroke="black" stroke-width="1" fill="rgb(204, 204, 204)" fill-opacity="0.25" points="66.000,2.000 60.000,2.000 60.000,7.000 66.000,7.000 " />
<polygon stroke="black" stroke-width="1" fill="rgb(204, 204, 204)" fill-opacity="0.25" points="60.000,2.000 54.000,2.000 54.000,7.000 60.000,7.000 " />
<polygon stroke="black" stroke-width="1" fill="rgb(204, 204, 204)" fill-opacity="0.25" points="53.000,92.000 93.000,92.000 93.000,78.000 53.000,78.000 " />
<polygon stroke="black" stroke-width="1" fill="rgb(204, 204, 204)" fill-opacity="0.25" points="2.000,57.000 50.000,57.000 50.000,43.000 2.000,43.000 " />
<polygon stroke="black" stroke-width="1" fill="rgb(204, 204, 204)" fill-opacity="0.25" points="50.000,29.000 2.000,29.000 2.000,15.000 50.000,15.000 " />
<polygon stroke="black" stroke-width="1" fill="rgb(204, 204, 204)" fill-opacity="0.25" points="125.000,126.000 125.000,86.000 112.000,93.000 107.000,106.000 112.000,119.000 " />
<polygon stroke="black" stroke-width="1" fill="rgb(204, 204, 204)" fill-opacity="0.25" points="50.000,15.000 2.000,15.000 2.000,29.000 50.000,29.000 " />
<polygon stroke="black" stroke-width="1" fill="rgb(204, 204, 204)" fill-opacity="0.25" points="50.000,29.000 2.000,29.000 2.000,43.000 50.000,43.000 " />
<polygon stroke="black" stroke-width="1" fill="rgb(204, 204, 204)" fill-opacity="0.25" points="125.000,126.000 125.000,86.000 112.000,93.000 107.000,106.000 112.000,119.000 " />
<polygon stroke="black" stroke-width="1" fill="rgb(204, 204, 204)" fill-opacity="0.25" points="46.000,9.000 6.000,9.000 2.000,13.000 50.000,13.000 " />
<polygon stroke="black" stroke-width="1" fill="rgb(204, 204, 204)" fill-opacity="0.25" points="42.000,4.000 10.000,4.000 6.000,8.000 46.000,8.000 " />
<polygon stroke="black" stroke-width="1" fill="rgb(204, 204, 204)" fill-opacity="0.25" points="10.000,4.000 42.000,4.000 46.000,8.000 6.000,8.000 " />
<polygon stroke="black" stroke-width="1" fill="rgb(204, 204, 204)" fill-opacity="0.25" points="6.000,9.000 46.000,9.000 50.000,13.000 2.000,13.000 " />
<polygon stroke="black" stroke-width="1" fill="rgb(204, 204, 204)" fill-opacity="0.25" points="114.000,77.000 114.000,55.000 110.000,65.000 " />
<polygon stroke="black" stroke-width="1" fill="rgb(204, 204, 204)" fill-opacity="0.25" points="125.000,82.000 125.000,49.000 114.000,55.000 114.000,77.000 " />
<polygon stroke="black" stroke-width="1" fill="rgb(204, 204, 204)" fill-opacity="0.25" points="125.000,82.000 125.000,49.000 114.000,55.000 114.000,77.000 " />
<polygon stroke="black" stroke-width="1" fill="rgb(204, 204, 204)" fill-opacity="0.25" points="53.000,92.000 93.000,92.000 93.000,78.000 53.000,78.000 " />
<polygon stroke="black" stroke-width="1" fill="rgb(204, 204, 204)" fill-opacity="0.25" points="53.000,78.000 93.000,78.000 93.000,67.000 53.000,67.000 " />
<polygon stroke="black" stroke-width="1" fill="rgb(204, 204, 204)" fill-opacity="0.25" points="53.000,78.000 93.000,78.000 93.000,67.000 53.000,67.000 " />
<polygon stroke="black" stroke-width="1" fill="rgb(204, 204, 204)" fill-opacity="0.25" points="114.000,77.000 114.000,55.000 110.000,65.000 " />

</svg>
