# Blender v2.80 (sub 75) OBJ File: 'crystal.blend'
# www.blender.org
mtllib crystal.mtl
o crystal_Cube.001
v 0.000250 0.000000 0.051250
v 0.000250 0.000000 -0.090750
v 0.018069 0.000000 0.005383
v 0.000250 0.000000 -0.049617
v 0.029948 0.000000 0.009250
v 0.000250 0.029698 0.009250
v 0.000250 -0.029698 0.009250
v -0.029448 0.000000 0.009250
v 0.000250 0.000000 0.030583
v 0.000250 0.017819 0.005383
v 0.000250 -0.017819 0.005383
v -0.017569 0.000000 0.005383
vt 0.250000 0.250000
vt 0.250000 0.750000
vt 0.250000 0.250000
vt 0.750000 0.750000
vt 0.250000 0.750000
vt 0.250000 0.750000
vt 0.250000 0.250000
vt 0.250000 0.750000
vt 0.250000 0.750000
vt 0.750000 0.750000
vt 0.750000 0.250000
vt 0.750000 0.250000
vt 0.250000 0.250000
vt 0.750000 0.250000
vt 0.250000 0.250000
vt 0.750000 0.250000
vn -0.6920 0.6920 0.2055
vn 0.6325 0.6325 -0.4472
vn -0.6920 -0.6920 0.2055
vn -0.6325 -0.6325 -0.4472
vn -0.6325 0.6325 -0.4472
vn 0.6325 -0.6325 -0.4472
vn -0.6325 -0.6325 0.4472
vn 0.6920 -0.6920 0.2055
vn 0.6920 0.6920 0.2055
vn 0.6893 -0.6893 -0.2233
vn 0.6893 0.6893 -0.2233
vn 0.6325 0.6325 0.4472
vn 0.6325 -0.6325 0.4472
vn -0.6325 0.6325 0.4472
vn -0.6893 0.6893 -0.2233
vn -0.6893 -0.6893 -0.2233
usemtl None
s off
f 5/1/1 2/2/1 7/3/1
f 1/4/2 7/5/2 8/6/2
f 6/7/3 2/2/3 5/1/3
f 5/8/4 1/4/4 6/9/4
f 1/4/5 5/8/5 7/5/5
f 8/6/6 6/9/6 1/4/6
f 9/10/7 12/11/7 11/12/7
f 8/13/8 2/2/8 6/7/8
f 7/3/9 2/2/9 8/13/9
f 3/14/10 11/12/10 4/15/10
f 10/16/11 3/14/11 4/15/11
f 3/14/12 10/16/12 9/10/12
f 9/10/13 11/12/13 3/14/13
f 12/11/14 9/10/14 10/16/14
f 12/11/15 10/16/15 4/15/15
f 11/12/16 12/11/16 4/15/16
