# Blender v2.80 (sub 75) OBJ File: 'mgWand_GRN.blend'
# www.blender.org
mtllib mgWand_GRN.mtl
o scepter_GRN_Cylinder.001
v -0.015460 -0.160000 -0.009131
v -0.015460 0.100000 -0.009131
v 0.000129 -0.160000 -0.018131
v 0.000129 0.100000 -0.018131
v 0.015717 -0.160000 -0.009131
v 0.015717 0.100000 -0.009131
v 0.015717 -0.160000 0.008869
v 0.015717 0.100000 0.008869
v 0.000129 -0.160000 0.017869
v 0.000129 0.100000 0.017869
v -0.015460 -0.160000 0.008869
v -0.015460 0.100000 0.008869
v -0.022388 0.170000 -0.013131
v 0.010129 0.180000 -0.039131
v 0.022646 0.170000 -0.013131
v 0.022646 0.170000 0.012869
v 0.010129 0.180000 0.038869
v -0.022388 0.170000 0.012869
v -0.013901 0.180000 -0.008231
v 0.000129 0.180000 -0.016331
v 0.014159 0.180000 -0.008231
v 0.014159 0.180000 0.007969
v 0.000129 0.180000 0.016069
v -0.013901 0.180000 0.007969
v -0.015460 0.200000 -0.009131
v 0.000129 0.200000 -0.018131
v 0.015717 0.200000 -0.009131
v 0.015717 0.200000 0.008869
v 0.000129 0.200000 0.017869
v -0.015460 0.200000 0.008869
v -0.020829 0.230000 -0.012231
v 0.000129 0.230000 -0.024331
v 0.021087 0.230000 -0.012231
v 0.021087 0.230000 0.011969
v 0.000129 0.230000 0.024069
v -0.020829 0.230000 0.011969
v -0.016637 0.240000 -0.009811
v 0.000129 0.240000 -0.019491
v 0.016895 0.240000 -0.009811
v 0.016895 0.240000 0.009549
v 0.000129 0.240000 0.019229
v -0.016637 0.240000 0.009549
v -0.025523 -0.189100 -0.014941
v 0.000129 -0.189100 -0.029752
v 0.025781 -0.189100 -0.014941
v 0.025781 -0.189100 0.014679
v 0.000129 -0.189100 0.029490
v -0.025523 -0.189100 0.014679
v -0.040416 -0.223270 -0.023540
v -0.046688 -0.250300 -0.027161
v -0.040416 -0.277330 -0.023540
v -0.022821 -0.295899 -0.013381
v -0.022821 -0.223500 -0.039881
v -0.026371 -0.250000 -0.046030
v -0.022821 -0.276500 -0.039881
v -0.013121 -0.295899 -0.023081
v 0.000129 -0.223270 -0.046948
v 0.000129 -0.250300 -0.054191
v 0.000129 -0.277330 -0.046948
v 0.000129 -0.295899 -0.026631
v 0.023079 -0.223500 -0.039881
v 0.026629 -0.250000 -0.046030
v 0.023079 -0.276500 -0.039881
v 0.013379 -0.295899 -0.023081
v 0.040674 -0.223270 -0.023540
v 0.046946 -0.250300 -0.027161
v 0.040674 -0.277330 -0.023540
v 0.023079 -0.295899 -0.013381
v 0.046028 -0.223500 -0.000131
v 0.053129 -0.250000 -0.000131
v 0.046028 -0.276500 -0.000131
v 0.026629 -0.295899 -0.000131
v 0.040674 -0.223270 0.023278
v 0.046946 -0.250300 0.026899
v 0.040674 -0.277330 0.023278
v 0.023079 -0.295899 0.013119
v 0.023079 -0.223500 0.039619
v 0.026629 -0.250000 0.045768
v 0.023079 -0.276500 0.039619
v 0.013379 -0.295899 0.022819
v 0.000129 -0.223270 0.046686
v 0.000129 -0.250300 0.053929
v 0.000129 -0.277330 0.046686
v 0.000129 -0.295899 0.026369
v -0.040416 -0.223270 0.023278
v -0.022821 -0.223500 0.039619
v -0.026371 -0.250000 0.045768
v -0.022821 -0.276500 0.039619
v -0.013121 -0.295899 0.022819
v -0.046688 -0.250300 0.026899
v -0.040416 -0.277330 0.023278
v -0.022821 -0.295899 0.013119
v -0.045770 -0.223500 -0.000131
v -0.052871 -0.250000 -0.000131
v -0.045770 -0.276500 -0.000131
v -0.026371 -0.295899 -0.000131
v -0.018924 -0.323000 -0.011131
v 0.000129 -0.323000 -0.022131
v 0.019181 -0.323000 -0.011131
v 0.019181 -0.323000 0.010869
v 0.000129 -0.323000 0.021869
v -0.018924 -0.323000 0.010869
v -0.017192 -0.343000 -0.010131
v 0.000129 -0.343000 -0.020131
v 0.017449 -0.343000 -0.010131
v 0.017449 -0.343000 0.009869
v 0.000129 -0.343000 0.019869
v -0.017192 -0.343000 0.009869
v 0.000129 -0.373000 -0.000131
v 0.000129 -0.310000 0.015269
v 0.013466 -0.310000 0.007569
v 0.013466 -0.310000 -0.007831
v 0.000129 -0.310000 -0.015531
v -0.013208 -0.310000 -0.007831
v -0.013208 -0.310000 0.007569
v 0.000129 -0.300000 -0.000131
v 0.010129 0.220107 0.124877
v 0.018129 0.227189 0.078543
v 0.018129 0.180061 0.100519
v 0.019129 0.218558 0.053880
v 0.019129 0.166717 0.078054
v 0.017429 0.203639 0.042190
v 0.017429 0.167351 0.059112
v 0.015129 0.185495 0.050651
v 0.016129 0.192637 0.065967
v 0.015129 0.203625 0.089531
v 0.020129 0.191843 0.095025
v 0.020129 0.215407 0.084037
v 0.020129 0.194567 0.046420
v 0.022129 0.205597 0.059924
v 0.022129 0.179677 0.072011
v 0.020129 0.176423 0.054881
v 0.000129 0.160000 0.024869
v 0.011387 0.170000 0.019369
v -0.011129 0.170000 0.019369
v -0.011129 0.170000 -0.019631
v 0.011387 0.170000 -0.019631
v 0.000129 0.160000 -0.025131
v 0.010129 0.220106 -0.125140
v 0.018129 0.180060 -0.100782
v 0.018129 0.227188 -0.078806
v 0.019129 0.166715 -0.078317
v 0.019129 0.218556 -0.054143
v 0.017429 0.167349 -0.059374
v 0.017429 0.203638 -0.042453
v 0.015129 0.185494 -0.050913
v 0.016129 0.192636 -0.066230
v 0.013923 0.203879 -0.089627
v 0.020129 0.215406 -0.084300
v 0.020129 0.191842 -0.095288
v 0.020129 0.176421 -0.055144
v 0.022129 0.179676 -0.072273
v 0.022129 0.205596 -0.060187
v 0.020129 0.194566 -0.046683
v -0.015460 -0.100000 -0.009131
v 0.000129 -0.100000 -0.018131
v 0.015717 -0.100000 -0.009131
v 0.015717 -0.100000 0.008869
v 0.000129 -0.100000 0.017869
v -0.015460 -0.100000 0.008869
vt 0.867188 0.695312
vt 0.867188 0.695312
vt 0.867188 0.695312
vt 0.867188 0.695312
vt 0.867188 0.695312
vt 0.867188 0.695312
vt 0.320312 0.015625
vt 0.632812 0.015625
vt 0.632812 0.054688
vt 0.316406 0.054688
vt 0.320312 0.015625
vt 0.632812 0.015625
vt 0.632812 0.054688
vt 0.316406 0.054688
vt 0.320312 0.015625
vt 0.632812 0.015625
vt 0.632812 0.054688
vt 0.316406 0.054688
vt 0.000000 0.054688
vt 0.007812 0.015625
vt 0.320312 0.015625
vt 0.726562 0.226562
vt 0.703125 0.226562
vt 0.687500 0.125000
vt 0.742188 0.125000
vt 0.632812 0.015625
vt 0.632812 0.054688
vt 0.316406 0.054688
vt 0.000000 0.054688
vt 0.007812 0.015625
vt 0.867188 0.742188
vt 0.867188 0.742188
vt 0.867188 0.726562
vt 0.867188 0.726562
vt 0.867188 0.710938
vt 0.867188 0.710938
vt 0.867188 0.695312
vt 0.867188 0.695312
vt 0.726562 0.226562
vt 0.703125 0.226562
vt 0.687500 0.125000
vt 0.742188 0.125000
vt 0.750000 0.226562
vt 0.765625 0.125000
vt 0.773438 0.148438
vt 0.726562 0.226562
vt 0.750000 0.226562
vt 0.773438 0.148438
vt 0.765625 0.125000
vt 0.742188 0.125000
vt 0.726562 0.226562
vt 0.765625 0.125000
vt 0.742188 0.125000
vt 0.765625 0.125000
vt 0.867188 0.695312
vt 0.867188 0.710938
vt 0.867188 0.710938
vt 0.867188 0.710938
vt 0.867188 0.710938
vt 0.867188 0.695312
vt 0.867188 0.695312
vt 0.867188 0.710938
vt 0.867188 0.695312
vt 0.867188 0.710938
vt 0.867188 0.710938
vt 0.867188 0.710938
vt 0.867188 0.710938
vt 0.867188 0.710938
vt 0.734375 0.070312
vt 0.757812 0.070312
vt 0.773438 0.023438
vt 0.742188 0.023438
vt 0.867188 0.710938
vt 0.867188 0.710938
vt 0.867188 0.710938
vt 0.867188 0.710938
vt 0.867188 0.710938
vt 0.867188 0.710938
vt 0.734375 0.070312
vt 0.703125 0.070312
vt 0.695312 0.023438
vt 0.742188 0.023438
vt 0.757812 0.070312
vt 0.734375 0.070312
vt 0.742188 0.023438
vt 0.773438 0.023438
vt 0.703125 0.070312
vt 0.695312 0.023438
vt 0.734375 0.070312
vt 0.742188 0.023438
vt 0.867188 0.710938
vt 0.867188 0.710938
vt 0.867188 0.710938
vt 0.867188 0.710938
vt 0.078125 0.273438
vt 0.171875 0.507812
vt 0.023438 0.507812
vt 0.867188 0.742188
vt 0.867188 0.742188
vt 0.867188 0.726562
vt 0.867188 0.726562
vt 0.867188 0.742188
vt 0.867188 0.726562
vt 0.867188 0.742188
vt 0.867188 0.726562
vt 0.531250 0.265625
vt 0.531250 0.406250
vt 0.703125 0.406250
vt 0.679688 0.265625
vt 0.531250 0.093750
vt 0.625000 0.093750
vt 0.531250 0.570312
vt 0.679688 0.570312
vt 0.023438 0.820312
vt 0.000000 0.671875
vt 0.171875 0.671875
vt 0.171875 0.820312
vt 0.078125 0.984375
vt 0.171875 0.984375
vt 0.023438 0.507812
vt 0.171875 0.507812
vt 0.273438 0.984375
vt 0.328125 0.507812
vt 0.351562 0.671875
vt 0.328125 0.820312
vt 0.437500 0.093750
vt 0.382812 0.265625
vt 0.531250 0.265625
vt 0.359375 0.406250
vt 0.382812 0.570312
vt 0.531250 0.570312
vt 0.531250 0.406250
vt 0.531250 0.093750
vt 0.625000 0.093750
vt 0.679688 0.570312
vt 0.703125 0.406250
vt 0.679688 0.265625
vt 0.273438 0.984375
vt 0.328125 0.820312
vt 0.171875 0.820312
vt 0.351562 0.671875
vt 0.328125 0.507812
vt 0.171875 0.507812
vt 0.171875 0.671875
vt 0.171875 0.984375
vt 0.078125 0.984375
vt 0.023438 0.507812
vt 0.000000 0.671875
vt 0.023438 0.820312
vt 0.703125 0.406250
vt 0.679688 0.570312
vt 0.531250 0.570312
vt 0.531250 0.406250
vt 0.679688 0.265625
vt 0.531250 0.265625
vt 0.625000 0.093750
vt 0.531250 0.093750
vt 0.359375 0.406250
vt 0.382812 0.265625
vt 0.437500 0.093750
vt 0.382812 0.570312
vt 0.023438 0.820312
vt 0.000000 0.671875
vt 0.171875 0.671875
vt 0.171875 0.820312
vt 0.078125 0.984375
vt 0.351562 0.671875
vt 0.328125 0.820312
vt 0.171875 0.984375
vt 0.273438 0.984375
vt 0.328125 0.507812
vt 0.382812 0.265625
vt 0.359375 0.406250
vt 0.828125 0.843750
vt 0.828125 0.929688
vt 0.906250 0.976562
vt 0.984375 0.929688
vt 0.984375 0.843750
vt 0.906250 0.796875
vt 0.437500 0.093750
vt 0.382812 0.570312
vt 0.257812 0.273438
vt 0.078125 0.273438
vt 0.437500 0.804688
vt 0.625000 0.804688
vt 0.625000 0.804688
vt 0.437500 0.804688
vt 0.257812 0.273438
vt 0.437500 0.804688
vt 0.078125 0.273438
vt 0.625000 0.804688
vt 0.257812 0.273438
vt 0.804688 0.789062
vt 0.695312 0.789062
vt 0.703125 0.679688
vt 0.796875 0.679688
vt 0.804688 0.789062
vt 0.695312 0.789062
vt 0.703125 0.679688
vt 0.796875 0.679688
vt 0.804688 0.789062
vt 0.695312 0.789062
vt 0.703125 0.679688
vt 0.796875 0.679688
vt 0.804688 0.789062
vt 0.695312 0.789062
vt 0.703125 0.679688
vt 0.796875 0.679688
vt 0.804688 0.789062
vt 0.695312 0.789062
vt 0.703125 0.679688
vt 0.796875 0.679688
vt 0.804688 0.789062
vt 0.695312 0.789062
vt 0.703125 0.679688
vt 0.796875 0.679688
vt 0.750000 0.468750
vt 0.796875 0.882812
vt 0.703125 0.882812
vt 0.796875 0.882812
vt 0.703125 0.882812
vt 0.796875 0.882812
vt 0.703125 0.882812
vt 0.796875 0.882812
vt 0.703125 0.882812
vt 0.796875 0.882812
vt 0.703125 0.882812
vt 0.796875 0.882812
vt 0.703125 0.882812
vt 0.750000 0.976562
vt 0.835938 0.132812
vt 0.976562 0.023438
vt 0.898438 0.132812
vt 0.765625 0.265625
vt 0.859375 0.265625
vt 0.898438 0.132812
vt 0.835938 0.132812
vt 0.789062 0.453125
vt 0.765625 0.265625
vt 0.859375 0.265625
vt 0.875000 0.453125
vt 0.976562 0.750000
vt 0.835938 0.132812
vt 0.976562 0.023438
vt 0.898438 0.132812
vt 0.875000 0.453125
vt 0.789062 0.453125
vt 0.976562 0.132812
vt 0.976562 0.265625
vt 0.976562 0.453125
vt 0.804688 0.101562
vt 0.804688 0.101562
vt 0.765625 0.265625
vt 0.859375 0.265625
vt 0.898438 0.132812
vt 0.835938 0.132812
vt 0.789062 0.453125
vt 0.765625 0.265625
vt 0.859375 0.265625
vt 0.875000 0.453125
vt 0.976562 0.750000
vt 0.875000 0.453125
vt 0.789062 0.453125
vt 0.976562 0.132812
vt 0.976562 0.265625
vt 0.976562 0.453125
vt 0.867188 0.695312
vt 0.867188 0.710938
vt 0.867188 0.710938
vt 0.867188 0.695312
vt 0.867188 0.695312
vt 0.867188 0.710938
vt 0.867188 0.695312
vt 0.867188 0.710938
vt 0.867188 0.695312
vt 0.867188 0.710938
vt 0.867188 0.695312
vt 0.867188 0.710938
vn 0.0000 1.0000 0.0000
vn -0.8660 0.0000 -0.5000
vn -0.8649 -0.0580 -0.4985
vn 0.0000 -0.0582 -0.9983
vn 0.0000 0.0000 -1.0000
vn 0.8649 -0.0580 -0.4985
vn 0.8660 0.0000 -0.5000
vn 0.8649 -0.0580 0.4985
vn 0.8660 0.0000 0.5000
vn 0.0000 -0.0582 0.9983
vn 0.0000 0.0000 1.0000
vn 0.8295 0.2888 -0.4779
vn 0.8295 0.2888 0.4779
vn -0.8649 -0.0580 0.4985
vn -0.8660 0.0000 0.5000
vn 0.0000 0.2010 -0.9796
vn 0.8483 0.2010 -0.4898
vn 0.8609 0.1087 -0.4970
vn 0.0000 0.1087 -0.9940
vn 0.7306 0.2088 -0.6501
vn -0.0523 0.5805 -0.8126
vn 0.7983 0.3877 -0.4609
vn -0.8295 0.2888 0.4779
vn -0.8295 0.2888 -0.4779
vn 0.7306 0.2088 0.6501
vn -0.0395 -0.2552 0.9661
vn -0.0395 -0.2552 -0.9661
vn -0.5541 0.2742 0.7859
vn -0.5541 0.2742 -0.7859
vn -0.7983 0.3877 -0.4609
vn -0.8563 -0.1489 -0.4944
vn 0.0000 -0.1489 -0.9888
vn -0.0523 0.5805 0.8126
vn -0.7983 0.3877 0.4609
vn 0.7983 0.3877 0.4609
vn 0.9896 -0.0463 0.1360
vn 0.9896 -0.0462 -0.1360
vn -0.8563 -0.1489 0.4944
vn 0.0000 -0.1489 0.9888
vn 0.0000 0.1122 0.9937
vn -0.8605 0.1122 0.4968
vn 0.8563 -0.1489 0.4944
vn 0.8563 -0.1489 -0.4944
vn -0.8605 0.1122 -0.4968
vn -0.5500 0.7724 0.3175
vn -0.5500 0.7724 -0.3175
vn 0.8605 0.1122 -0.4968
vn 0.8605 0.1122 0.4968
vn 0.0000 0.1122 -0.9937
vn 0.5500 0.7724 0.3175
vn 0.0000 0.7724 0.6351
vn 0.0000 0.7724 -0.6351
vn 0.5500 0.7724 -0.3175
vn 0.0000 0.1087 0.9940
vn -0.4676 0.3538 0.8100
vn 0.0000 0.3515 0.9362
vn 0.0000 0.2010 0.9796
vn -0.8483 0.2010 0.4898
vn -0.8609 0.1087 0.4970
vn -0.8483 0.2010 -0.4898
vn -0.8609 0.1087 -0.4970
vn 0.8483 0.2010 0.4898
vn 0.8609 0.1087 0.4970
vn -0.8739 -0.4861 0.0000
vn -1.0000 0.0019 0.0000
vn -0.8660 -0.0019 -0.5000
vn -0.7486 -0.5028 -0.4322
vn -0.7071 -0.7071 0.0000
vn -0.5998 -0.7213 -0.3463
vn -0.9353 0.3538 0.0000
vn -0.8107 0.3515 -0.4681
vn -0.5000 0.0019 -0.8660
vn -0.4369 -0.4861 -0.7568
vn -0.3535 -0.7071 -0.6124
vn -0.4676 0.3538 -0.8100
vn 0.0000 -0.7213 -0.6926
vn 0.0000 0.3515 -0.9362
vn 0.0000 -0.0019 -1.0000
vn 0.0000 -0.5028 -0.8644
vn 0.4369 -0.4861 -0.7568
vn 0.4676 0.3538 -0.8100
vn 0.5000 0.0019 -0.8660
vn 0.3535 -0.7071 -0.6124
vn 0.5998 -0.7213 -0.3463
vn 0.8107 0.3515 -0.4681
vn 0.8660 -0.0019 -0.5000
vn 0.7486 -0.5028 -0.4322
vn 0.8739 -0.4861 0.0000
vn 0.9353 0.3538 0.0000
vn 1.0000 0.0019 0.0000
vn 0.7071 -0.7071 0.0000
vn 0.5998 -0.7213 0.3463
vn 0.8107 0.3515 0.4681
vn 0.8660 -0.0019 0.5000
vn 0.7486 -0.5028 0.4322
vn 0.4676 0.3538 0.8100
vn 0.5000 0.0019 0.8660
vn 0.4369 -0.4861 0.7568
vn 0.3535 -0.7071 0.6124
vn 0.0000 -0.0019 1.0000
vn 0.0000 -0.5028 0.8644
vn 0.0000 -0.7213 0.6926
vn -0.5000 0.0019 0.8660
vn -0.4369 -0.4861 0.7568
vn -0.8660 -0.0019 0.5000
vn -0.7486 -0.5028 0.4322
vn -0.3535 -0.7071 0.6124
vn -0.5998 -0.7213 0.3463
vn -0.8107 0.3515 0.4681
vn 0.8535 0.1696 -0.4928
vn 0.8535 0.1696 0.4928
vn 0.8220 -0.3148 0.4746
vn 0.8220 -0.3148 -0.4746
vn -0.8535 0.1696 -0.4928
vn 0.0000 0.1696 -0.9855
vn 0.0000 -0.3148 -0.9491
vn -0.8220 -0.3148 -0.4746
vn -0.8535 0.1696 0.4928
vn -0.8220 -0.3148 0.4746
vn 0.0000 0.1696 0.9855
vn 0.0000 -0.3148 0.9491
vn 0.0000 -1.0000 0.0000
vn 0.6729 0.6295 -0.3885
vn 0.6729 0.6295 0.3885
vn -0.6729 0.6295 -0.3885
vn 0.0000 0.6295 -0.7770
vn -0.6729 0.6295 0.3885
vn 0.0000 0.6295 0.7770
vn 0.9129 -0.3455 -0.2171
vn 0.9320 -0.0785 -0.3537
vn 0.9787 0.1637 -0.1238
vn 0.9970 -0.0767 -0.0015
vn 0.9320 -0.2205 -0.2875
vn 0.9129 0.0558 -0.4042
vn 0.9735 -0.0862 0.2118
vn 0.9787 -0.2001 0.0458
vn 0.9970 0.0481 -0.0597
vn 0.9861 0.1361 0.0953
vn 0.9788 0.0865 0.1855
vn 0.9129 0.0558 0.4042
vn 0.9320 -0.2205 0.2875
vn 0.9861 -0.0144 0.1656
vn 0.9735 0.2176 0.0701
vn 0.9783 -0.0875 -0.1876
vn 0.9999 0.0035 0.0076
vn 0.9961 0.0373 0.0800
vn 0.9787 -0.2001 -0.0458
vn 0.9966 0.0572 0.0592
vn 0.9320 -0.0785 0.3537
vn 0.9129 -0.3455 0.2171
vn 0.9735 0.2176 -0.0701
vn 0.9787 0.1637 0.1238
vn 0.9965 -0.0834 -0.0075
vn 0.9834 -0.0392 -0.1773
vn 0.9821 0.0798 -0.1707
vn 0.9839 0.1560 -0.0863
vn 0.9735 -0.0862 -0.2118
vn 0.9783 -0.0875 0.1876
vn 0.9998 0.0077 -0.0178
vn 0.9965 0.0269 -0.0794
usemtl Material.003
s off
f 38/1/1 37/2/1 42/3/1 41/4/1 40/5/1 39/6/1
s 1
f 155/7/2 2/8/3 4/9/4 156/10/5
f 156/11/5 4/12/4 6/13/6 157/14/7
f 157/15/7 6/16/6 8/17/8 158/18/9
f 158/18/9 8/19/8 10/20/10 159/21/11
f 8/22/8 6/23/6 15/24/12 16/25/13
f 159/21/11 10/26/10 12/27/14 160/28/15
f 160/28/15 12/29/14 2/30/3 155/7/2
f 3/31/16 5/32/17 45/33/18 44/34/19
f 15/35/12 137/36/20 20/37/21 21/38/22
f 2/39/3 12/40/14 18/41/23 13/42/24
f 10/43/10 8/22/8 16/25/13 134/44/25 133/45/26
f 6/46/6 4/47/4 138/48/27 137/49/20 15/50/12
f 12/51/14 10/43/10 133/45/26 135/52/28 18/53/23
f 4/47/4 2/39/3 13/42/24 136/54/29 138/48/27
f 20/37/21 19/55/30 25/56/31 26/57/32
f 18/58/23 135/59/28 23/60/33 24/61/34
f 16/62/13 15/35/12 21/38/22 22/63/35
f 14/64/36 136/65/29 20/37/21
f 13/66/24 18/58/23 24/61/34 19/55/30
f 17/67/37 134/68/25 23/60/33
f 30/69/38 29/70/39 35/71/40 36/72/41
f 19/55/30 24/61/34 30/73/38 25/56/31
f 23/60/33 22/63/35 28/74/42 29/75/39
f 21/38/22 20/37/21 26/57/32 27/76/43
f 24/61/34 23/60/33 29/75/39 30/73/38
f 22/63/35 21/38/22 27/76/43 28/74/42
f 31/77/44 36/78/41 42/3/45 37/2/46
f 28/79/42 27/80/43 33/81/47 34/82/48
f 26/83/32 25/84/31 31/85/44 32/86/49
f 25/84/31 30/87/38 36/88/41 31/85/44
f 29/70/39 28/79/42 34/82/48 35/71/40
f 27/89/43 26/83/32 32/86/49 33/90/47
f 35/91/40 34/92/48 40/5/50 41/4/51
f 33/93/47 32/94/49 38/1/52 39/6/53
f 36/78/41 35/91/40 41/4/51 42/3/45
f 34/92/48 33/93/47 39/6/53 40/5/50
f 32/94/49 31/77/44 37/2/46 38/1/52
f 47/95/54 86/96/55 81/97/56
f 9/98/57 11/99/58 48/100/59 47/101/54
f 1/102/60 3/31/16 44/34/19 43/103/61
f 5/32/17 7/104/62 46/105/63 45/33/18
f 11/99/58 1/102/60 43/103/61 48/100/59
f 7/104/62 9/98/57 47/101/54 46/105/63
f 95/106/64 94/107/65 50/108/66 51/109/67
f 96/110/68 95/106/64 52/111/69
f 94/107/65 93/112/70 49/113/71 50/108/66
f 51/114/67 50/115/66 54/116/72 55/117/73
f 52/118/69 55/117/73 56/119/74
f 50/115/66 49/120/71 53/121/75 54/116/72
f 56/119/74 55/117/73 60/122/76
f 54/116/72 53/121/75 57/123/77 58/124/78
f 55/117/73 54/116/72 58/124/78 59/125/79
f 60/126/76 59/127/79 63/128/80
f 58/129/78 57/130/77 61/131/81 62/132/82
f 59/127/79 58/129/78 62/132/82 63/128/80
f 64/133/83 63/128/80 68/134/84
f 62/132/82 61/131/81 65/135/85 66/136/86
f 63/128/80 62/132/82 66/136/86 67/137/87
f 68/138/84 67/139/87 71/140/88
f 66/141/86 65/142/85 69/143/89 70/144/90
f 67/139/87 66/141/86 70/144/90 71/140/88
f 72/145/91 71/140/88 76/146/92
f 70/144/90 69/143/89 73/147/93 74/148/94
f 71/140/88 70/144/90 74/148/94 75/149/95
f 74/150/94 73/151/93 77/152/96 78/153/97
f 75/154/95 74/150/94 78/153/97 79/155/98
f 76/156/92 79/155/98 80/157/99
f 79/155/98 78/153/97 82/158/100 83/159/101
f 80/157/99 79/155/98 84/160/102
f 78/153/97 77/152/96 81/161/56 82/158/100
f 83/162/101 82/163/100 87/164/103 88/165/104
f 84/166/102 83/162/101 88/165/104
f 82/163/100 81/97/56 86/96/55 87/164/103
f 88/165/104 87/164/103 90/167/105 91/168/106
f 89/169/107 88/165/104 92/170/108
f 87/164/103 86/96/55 85/171/109 90/167/105
f 91/172/106 90/173/105 94/107/65 95/106/64
f 43/174/61 44/175/19 45/176/18 46/177/63 47/178/54 48/179/59
f 92/180/108 95/106/64 96/110/68
f 90/173/105 85/181/109 93/112/70 94/107/65
f 45/182/18 69/143/89 65/142/85
f 43/183/61 53/121/75 49/120/71
f 48/184/59 43/185/61 93/112/70
f 46/186/63 77/152/96 73/151/93
f 44/187/19 61/131/81 57/130/77
f 86/96/55 48/188/59 85/171/109
f 48/188/59 86/96/55 47/95/54
f 77/152/96 47/189/54 81/161/56
f 47/189/54 77/152/96 46/186/63
f 69/143/89 46/190/63 73/147/93
f 46/190/63 69/143/89 45/182/18
f 61/131/81 45/191/18 65/135/85
f 45/191/18 61/131/81 44/187/19
f 53/121/75 44/192/19 57/123/77
f 44/192/19 53/121/75 43/183/61
f 43/185/61 49/113/71 93/112/70
f 93/112/70 85/181/109 48/184/59
f 99/193/110 100/194/111 106/195/112 105/196/113
f 97/197/114 98/198/115 104/199/116 103/200/117
f 102/201/118 97/202/114 103/203/117 108/204/119
f 100/205/111 101/206/120 107/207/121 106/208/112
f 98/209/115 99/210/110 105/211/113 104/212/116
f 101/213/120 102/214/118 108/215/119 107/216/121
f 108/204/119 103/203/117 109/217/122
f 106/208/112 107/207/121 109/217/122
f 104/212/116 105/211/113 109/217/122
f 107/216/121 108/215/119 109/217/122
f 105/196/113 106/195/112 109/217/122
f 103/200/117 104/199/116 109/217/122
f 100/194/111 99/193/110 112/218/123 111/219/124
f 98/198/115 97/197/114 114/220/125 113/221/126
f 97/202/114 102/201/118 115/222/127 114/223/125
f 101/206/120 100/205/111 111/224/124 110/225/128
f 99/210/110 98/209/115 113/226/126 112/227/123
f 102/214/118 101/213/120 110/228/128 115/229/127
f 113/221/126 114/220/125 116/230/1
f 111/219/124 112/218/123 116/230/1
f 115/229/127 110/228/128 116/230/1
f 114/223/125 115/222/127 116/230/1
f 112/227/123 113/226/126 116/230/1
f 110/225/128 111/224/124 116/230/1
f 123/231/129 17/232/37 132/233/130
f 120/234/131 130/235/132 129/236/133 122/237/134
f 119/238/135 121/239/136 131/240/137 127/241/138
f 119/238/135 127/241/138 117/242/139
f 145/243/140 14/244/36 154/245/141
f 117/242/139 128/246/142 118/247/143
f 124/248/144 17/232/37 129/236/133
f 124/248/144 125/249/145 131/240/137 132/233/130
f 126/250/146 125/249/145 130/235/132 128/246/142
f 129/236/133 17/232/37 122/237/134
f 117/242/139 127/241/138 126/250/146
f 132/233/130 17/232/37 124/248/144
f 132/233/130 131/240/137 121/239/136 123/231/129
f 129/236/133 130/235/132 125/249/145 124/248/144
f 128/246/142 130/235/132 120/234/131 118/247/143
f 128/246/142 117/242/139 126/250/146
f 127/241/138 131/240/137 125/249/145 126/250/146
f 23/60/33 135/59/28 17/67/37
f 135/52/28 133/45/26 17/251/37
f 23/60/33 134/68/25 16/62/13 22/63/35
f 133/45/26 134/44/25 17/251/37
f 137/49/20 138/48/27 14/252/36
f 20/37/21 137/36/20 14/64/36
f 138/48/27 136/54/29 14/252/36
f 20/37/21 136/65/29 13/66/24 19/55/30
f 142/253/147 152/254/148 151/255/149 144/256/150
f 141/257/151 143/258/152 153/259/153 149/260/154
f 141/257/151 149/260/154 139/261/155
f 139/261/155 150/262/156 140/263/157
f 146/264/158 14/244/36 151/255/149
f 146/264/158 147/265/159 153/259/153 154/245/141
f 148/266/160 147/265/159 152/254/148 150/262/156
f 151/255/149 14/244/36 144/256/150
f 139/261/155 149/260/154 148/266/160
f 154/245/141 14/244/36 146/264/158
f 154/245/141 153/259/153 143/258/152 145/243/140
f 151/255/149 152/254/148 147/265/159 146/264/158
f 150/262/156 152/254/148 142/253/147 140/263/157
f 150/262/156 139/261/155 148/266/160
f 149/260/154 153/259/153 147/265/159 148/266/160
f 79/155/98 76/156/92 75/154/95
f 52/111/69 95/106/64 51/109/67
f 60/122/76 55/117/73 59/125/79
f 95/106/64 92/180/108 91/172/106
f 63/128/80 64/133/83 60/126/76
f 68/134/84 63/128/80 67/137/87
f 71/140/88 72/145/91 68/138/84
f 76/146/92 71/140/88 75/149/95
f 84/160/102 79/155/98 83/159/101
f 88/165/104 89/169/107 84/166/102
f 92/170/108 88/165/104 91/168/106
f 55/117/73 52/118/69 51/114/67
f 11/267/58 160/268/15 155/269/2 1/270/60
f 9/271/57 159/272/11 160/268/15 11/267/58
f 7/273/62 158/274/9 159/272/11 9/271/57
f 5/275/17 157/276/7 158/274/9 7/273/62
f 3/277/16 156/278/5 157/276/7 5/275/17
f 1/270/60 155/269/2 156/278/5 3/277/16
