# Blender v2.80 (sub 75) OBJ File: 'mgWand_GRN.blend'
# www.blender.org
mtllib mgWand_GRN_flower.mtl
o flower_Cylinder.003
v 0.000000 -0.000085 -0.022841
v 0.000000 0.016231 -0.056464
v 0.019781 -0.000085 -0.011421
v 0.048899 0.016231 -0.028232
v 0.019781 -0.000085 0.011421
v 0.048899 0.016231 0.028232
v -0.000000 -0.000085 0.022841
v -0.000000 0.016231 0.056464
v -0.019781 -0.000085 0.011421
v -0.048899 0.016231 0.028232
v -0.019781 -0.000085 -0.011421
v -0.048899 0.016231 -0.028232
v 0.000000 0.065176 -0.084712
v 0.073363 0.065176 -0.042356
v 0.073363 0.065176 0.042356
v -0.000000 0.065176 0.084712
v -0.073363 0.065176 0.042356
v -0.073363 0.065176 -0.042356
v 0.000000 0.081491 -0.104196
v 0.090236 0.081491 -0.052098
v 0.090236 0.081491 0.052098
v -0.000000 0.081491 0.104196
v -0.090236 0.081491 0.052098
v -0.090236 0.081491 -0.052098
v 0.010279 0.016231 -0.017803
v 0.025409 0.032546 -0.044009
v 0.020557 0.016231 0.000000
v 0.050817 0.032546 0.000000
v 0.010279 0.016231 0.017803
v 0.025409 0.032546 0.044009
v -0.010279 0.016231 0.017803
v -0.025409 0.032546 0.044009
v -0.020557 0.016231 -0.000000
v -0.050817 0.032546 -0.000000
v -0.010279 0.016231 -0.017803
v -0.025409 0.032546 -0.044009
v 0.038120 0.081491 -0.066026
v 0.076241 0.081491 0.000000
v 0.038120 0.081491 0.066026
v -0.038120 0.081491 0.066026
v -0.076241 0.081491 -0.000000
v -0.038120 0.081491 -0.066026
v 0.046888 0.097807 -0.081213
v 0.093776 0.097807 0.000000
v 0.046888 0.097807 0.081213
v -0.046888 0.097807 0.081213
v -0.093776 0.097807 -0.000000
v -0.046888 0.097807 -0.081213
v 0.016023 0.024388 -0.009251
v 0.035647 0.040703 -0.020489
v 0.014420 0.024388 0.008418
v 0.035647 0.040703 0.020674
v 0.000000 0.024388 0.018501
v 0.000000 0.040703 0.041255
v -0.014420 0.024388 0.008418
v -0.035647 0.040703 0.020674
v -0.016023 0.024388 -0.009251
v -0.035647 0.040703 -0.020489
v -0.000000 0.024388 -0.018501
v -0.000000 0.040703 -0.041070
v 0.053481 0.089649 -0.030785
v 0.053481 0.089649 0.030970
v -0.000000 0.089649 0.061848
v -0.053481 0.089649 0.030970
v -0.053481 0.089649 -0.030785
v 0.000000 0.089649 -0.061663
v 0.065782 0.105964 -0.037887
v 0.065782 0.105964 0.038072
v 0.000000 0.105964 0.076051
v -0.065782 0.105964 0.038072
v -0.065782 0.105964 -0.037887
v 0.000000 0.105964 -0.075866
v 0.012951 0.032546 0.000000
v 0.038418 0.057019 0.000000
v 0.006476 0.032546 0.011216
v 0.019209 0.057019 0.033271
v -0.006476 0.032546 0.011216
v -0.019209 0.057019 0.033271
v -0.012951 0.032546 -0.000000
v -0.038418 0.057019 -0.000000
v -0.006476 0.032546 -0.011216
v -0.019209 0.057019 -0.033271
v 0.006476 0.032546 -0.011216
v 0.019209 0.057019 -0.033271
v 0.028819 0.105964 0.000000
v 0.014409 0.105964 0.024958
v -0.014410 0.105964 0.024958
v -0.028819 0.105964 -0.000000
v -0.014409 0.105964 -0.024958
v 0.014410 0.105964 -0.024958
v 0.035447 0.122279 0.000000
v 0.017724 0.122279 0.030698
v -0.017724 0.122279 0.030698
v -0.035447 0.122279 -0.000000
v -0.017724 0.122279 -0.030698
v 0.017724 0.122279 -0.030698
vt 0.515625 0.125000
vt 0.640625 0.375000
vt 0.218750 0.375000
vt 0.343750 0.125000
vt 0.515625 0.125000
vt 0.640625 0.375000
vt 0.218750 0.375000
vt 0.343750 0.125000
vt 0.515625 0.125000
vt 0.640625 0.375000
vt 0.218750 0.375000
vt 0.343750 0.125000
vt 0.515625 0.125000
vt 0.640625 0.375000
vt 0.218750 0.375000
vt 0.343750 0.125000
vt 0.750000 0.765625
vt 0.109375 0.765625
vt 0.515625 0.125000
vt 0.640625 0.375000
vt 0.218750 0.375000
vt 0.343750 0.125000
vt 0.515625 0.125000
vt 0.640625 0.375000
vt 0.218750 0.375000
vt 0.343750 0.125000
vt 0.109375 0.765625
vt 0.750000 0.765625
vt 0.828125 0.953125
vt 0.046875 0.953125
vt 0.750000 0.765625
vt 0.109375 0.765625
vt 0.750000 0.765625
vt 0.109375 0.765625
vt 0.750000 0.765625
vt 0.109375 0.765625
vt 0.750000 0.765625
vt 0.109375 0.765625
vt 0.515625 0.125000
vt 0.640625 0.375000
vt 0.218750 0.375000
vt 0.343750 0.125000
vt 0.828125 0.953125
vt 0.046875 0.953125
vt 0.828125 0.953125
vt 0.046875 0.953125
vt 0.828125 0.953125
vt 0.046875 0.953125
vt 0.828125 0.953125
vt 0.046875 0.953125
vt 0.828125 0.953125
vt 0.046875 0.953125
vt 0.515625 0.125000
vt 0.640625 0.375000
vt 0.218750 0.375000
vt 0.343750 0.125000
vt 0.515625 0.125000
vt 0.640625 0.375000
vt 0.218750 0.375000
vt 0.343750 0.125000
vt 0.515625 0.125000
vt 0.640625 0.375000
vt 0.218750 0.375000
vt 0.343750 0.125000
vt 0.750000 0.765625
vt 0.109375 0.765625
vt 0.515625 0.125000
vt 0.640625 0.375000
vt 0.218750 0.375000
vt 0.343750 0.125000
vt 0.515625 0.125000
vt 0.640625 0.375000
vt 0.218750 0.375000
vt 0.343750 0.125000
vt 0.109375 0.765625
vt 0.750000 0.765625
vt 0.828125 0.953125
vt 0.046875 0.953125
vt 0.750000 0.765625
vt 0.109375 0.765625
vt 0.750000 0.765625
vt 0.109375 0.765625
vt 0.750000 0.765625
vt 0.109375 0.765625
vt 0.750000 0.765625
vt 0.109375 0.765625
vt 0.828125 0.953125
vt 0.046875 0.953125
vt 0.828125 0.953125
vt 0.046875 0.953125
vt 0.828125 0.953125
vt 0.046875 0.953125
vt 0.828125 0.953125
vt 0.046875 0.953125
vt 0.828125 0.953125
vt 0.046875 0.953125
vt 0.515625 0.125000
vt 0.640625 0.375000
vt 0.218750 0.375000
vt 0.343750 0.125000
vt 0.515625 0.125000
vt 0.640625 0.375000
vt 0.218750 0.375000
vt 0.343750 0.125000
vt 0.515625 0.125000
vt 0.640625 0.375000
vt 0.218750 0.375000
vt 0.343750 0.125000
vt 0.515625 0.125000
vt 0.640625 0.375000
vt 0.218750 0.375000
vt 0.343750 0.125000
vt 0.750000 0.765625
vt 0.109375 0.765625
vt 0.515625 0.125000
vt 0.640625 0.375000
vt 0.218750 0.375000
vt 0.343750 0.125000
vt 0.515625 0.125000
vt 0.640625 0.375000
vt 0.218750 0.375000
vt 0.343750 0.125000
vt 0.109375 0.765625
vt 0.750000 0.765625
vt 0.828125 0.953125
vt 0.046875 0.953125
vt 0.750000 0.765625
vt 0.109375 0.765625
vt 0.750000 0.765625
vt 0.109375 0.765625
vt 0.750000 0.765625
vt 0.109375 0.765625
vt 0.750000 0.765625
vt 0.109375 0.765625
vt 0.828125 0.953125
vt 0.046875 0.953125
vt 0.828125 0.953125
vt 0.046875 0.953125
vt 0.828125 0.953125
vt 0.046875 0.953125
vt 0.828125 0.953125
vt 0.046875 0.953125
vt 0.828125 0.953125
vt 0.046875 0.953125
vt 0.875000 0.671875
vt 0.968750 0.500000
vt 0.718750 0.500000
vt 0.812500 0.671875
vt 0.875000 0.671875
vt 0.968750 0.500000
vt 0.718750 0.500000
vt 0.812500 0.671875
vt 0.875000 0.671875
vt 0.968750 0.500000
vt 0.718750 0.500000
vt 0.812500 0.671875
vt 0.875000 0.671875
vt 0.968750 0.500000
vt 0.718750 0.500000
vt 0.812500 0.671875
vt 0.921875 0.156250
vt 0.765625 0.156250
vt 0.875000 0.671875
vt 0.968750 0.500000
vt 0.718750 0.500000
vt 0.812500 0.671875
vt 0.875000 0.671875
vt 0.968750 0.500000
vt 0.718750 0.500000
vt 0.812500 0.671875
vt 0.765625 0.156250
vt 0.921875 0.156250
vt 0.968750 0.046875
vt 0.718750 0.046875
vt 0.921875 0.156250
vt 0.765625 0.156250
vt 0.921875 0.156250
vt 0.765625 0.156250
vt 0.921875 0.156250
vt 0.765625 0.156250
vt 0.921875 0.156250
vt 0.765625 0.156250
vt 0.968750 0.046875
vt 0.718750 0.046875
vt 0.968750 0.046875
vt 0.718750 0.046875
vt 0.968750 0.046875
vt 0.718750 0.046875
vt 0.968750 0.046875
vt 0.718750 0.046875
vt 0.968750 0.046875
vt 0.718750 0.046875
vt 0.250000 0.203125
vt 0.156250 0.250000
vt 0.062500 0.203125
vt 0.062500 0.093750
vt 0.156250 0.046875
vt 0.250000 0.093750
vn 0.0000 -0.9564 -0.2920
vn 0.0000 -0.6872 -0.7264
vn 0.6291 -0.6872 -0.3632
vn 0.2529 -0.9564 -0.1460
vn 0.6291 -0.6872 0.3632
vn 0.2529 -0.9564 0.1460
vn 0.0000 -0.6872 0.7264
vn 0.0000 -0.9564 0.2920
vn -0.6291 -0.6872 0.3632
vn -0.2529 -0.9564 0.1460
vn 0.0000 -0.6723 0.7402
vn -0.6411 -0.6723 0.3701
vn -0.6291 -0.6872 -0.3632
vn -0.2529 -0.9564 -0.1460
vn -0.6411 -0.6723 -0.3701
vn -0.5560 -0.7667 0.3210
vn -0.5560 -0.7667 -0.3210
vn 0.6411 -0.6723 -0.3701
vn 0.6411 -0.6723 0.3701
vn 0.0000 -0.6723 -0.7402
vn 0.2373 -0.8802 -0.4110
vn 0.3769 -0.6571 -0.6528
vn 0.7538 -0.6571 0.0000
vn 0.4746 -0.8802 0.0000
vn 0.5560 -0.7667 0.3210
vn 0.0000 -0.7667 0.6420
vn 0.0000 -0.7667 -0.6420
vn 0.5560 -0.7667 -0.3210
vn 0.3769 -0.6571 0.6528
vn 0.2373 -0.8802 0.4110
vn -0.3769 -0.6571 0.6528
vn -0.2373 -0.8802 0.4110
vn -0.7538 -0.6571 0.0000
vn -0.4746 -0.8802 0.0000
vn -0.3869 -0.6334 0.6702
vn -0.7738 -0.6334 0.0000
vn -0.3769 -0.6571 -0.6528
vn -0.2373 -0.8802 -0.4110
vn -0.3869 -0.6334 -0.6702
vn -0.6812 -0.7321 0.0000
vn -0.3406 -0.7321 -0.5899
vn 0.7738 -0.6334 0.0000
vn 0.3869 -0.6334 0.6702
vn 0.3869 -0.6334 -0.6702
vn 0.3406 -0.7321 0.5899
vn -0.3406 -0.7321 0.5899
vn 0.3406 -0.7321 -0.5899
vn 0.6812 -0.7321 0.0000
vn 0.5014 -0.8188 -0.2795
vn 0.7017 -0.5874 -0.4031
vn 0.7009 -0.5873 0.4047
vn 0.4970 -0.8188 0.2875
vn 0.0000 -0.5921 0.8059
vn 0.0000 -0.8271 0.5621
vn -0.7009 -0.5873 0.4047
vn -0.4970 -0.8188 0.2875
vn -0.7017 -0.5874 -0.4031
vn -0.5014 -0.8188 -0.2795
vn -0.7215 -0.5531 0.4165
vn -0.7215 -0.5531 -0.4165
vn 0.0000 -0.5829 -0.8125
vn 0.0000 -0.8104 -0.5859
vn 0.0000 -0.5531 -0.8331
vn -0.6532 -0.6566 -0.3771
vn 0.0000 -0.6566 -0.7542
vn 0.7215 -0.5531 0.4165
vn 0.0000 -0.5531 0.8331
vn 0.7215 -0.5531 -0.4165
vn 0.0000 -0.6566 0.7542
vn -0.6532 -0.6566 0.3771
vn 0.6532 -0.6566 -0.3771
vn 0.6532 -0.6566 0.3771
vn 0.6929 -0.7210 0.0000
vn 0.9643 -0.2647 0.0000
vn 0.4822 -0.2647 0.8351
vn 0.3464 -0.7210 0.6001
vn -0.4822 -0.2647 0.8351
vn -0.3464 -0.7210 0.6001
vn -0.9643 -0.2647 0.0000
vn -0.6929 -0.7210 0.0000
vn -0.4822 -0.2647 -0.8351
vn -0.3464 -0.7210 -0.6001
vn -0.9944 -0.1060 0.0000
vn -0.4972 -0.1060 -0.8611
vn 0.4822 -0.2647 -0.8351
vn 0.3464 -0.7210 -0.6001
vn 0.4972 -0.1060 -0.8611
vn -0.4632 -0.3764 -0.8023
vn 0.4632 -0.3764 -0.8023
vn 0.4972 -0.1060 0.8611
vn -0.4972 -0.1060 0.8611
vn 0.9944 -0.1060 0.0000
vn -0.4632 -0.3764 0.8023
vn -0.9265 -0.3764 0.0000
vn 0.9265 -0.3764 0.0000
vn 0.4632 -0.3764 0.8023
usemtl flower
s 1
f 1/1/1 2/2/2 4/3/3 3/4/4
f 3/5/4 4/6/3 6/7/5 5/8/6
f 5/9/6 6/10/5 8/11/7 7/12/8
f 7/13/8 8/14/7 10/15/9 9/16/10
f 10/15/9 8/14/7 16/17/11 17/18/12
f 9/19/10 10/20/9 12/21/13 11/22/14
f 11/23/14 12/24/13 2/25/2 1/26/1
f 18/27/15 17/28/12 23/29/16 24/30/17
f 6/7/5 4/6/3 14/31/18 15/32/19
f 12/21/13 10/20/9 17/28/12 18/27/15
f 4/3/3 2/2/2 13/33/20 14/34/18
f 8/11/7 6/10/5 15/35/19 16/36/11
f 2/25/2 12/24/13 18/37/15 13/38/20
f 25/39/21 26/40/22 28/41/23 27/42/24
f 16/36/11 15/35/19 21/43/25 22/44/26
f 14/34/18 13/33/20 19/45/27 20/46/28
f 13/38/20 18/37/15 24/47/17 19/48/27
f 17/18/12 16/17/11 22/49/26 23/50/16
f 15/32/19 14/31/18 20/51/28 21/52/25
f 27/53/24 28/54/23 30/55/29 29/56/30
f 29/57/30 30/58/29 32/59/31 31/60/32
f 31/61/32 32/62/31 34/63/33 33/64/34
f 34/63/33 32/62/31 40/65/35 41/66/36
f 33/67/34 34/68/33 36/69/37 35/70/38
f 35/71/38 36/72/37 26/73/22 25/74/21
f 42/75/39 41/76/36 47/77/40 48/78/41
f 30/55/29 28/54/23 38/79/42 39/80/43
f 36/69/37 34/68/33 41/76/36 42/75/39
f 28/41/23 26/40/22 37/81/44 38/82/42
f 32/59/31 30/58/29 39/83/43 40/84/35
f 26/73/22 36/72/37 42/85/39 37/86/44
f 40/84/35 39/83/43 45/87/45 46/88/46
f 38/82/42 37/81/44 43/89/47 44/90/48
f 37/86/44 42/85/39 48/91/41 43/92/47
f 41/66/36 40/65/35 46/93/46 47/94/40
f 39/80/43 38/79/42 44/95/48 45/96/45
f 49/97/49 50/98/50 52/99/51 51/100/52
f 51/101/52 52/102/51 54/103/53 53/104/54
f 53/105/54 54/106/53 56/107/55 55/108/56
f 55/109/56 56/110/55 58/111/57 57/112/58
f 58/111/57 56/110/55 64/113/59 65/114/60
f 57/115/58 58/116/57 60/117/61 59/118/62
f 59/119/62 60/120/61 50/121/50 49/122/49
f 66/123/63 65/124/60 71/125/64 72/126/65
f 54/103/53 52/102/51 62/127/66 63/128/67
f 60/117/61 58/116/57 65/124/60 66/123/63
f 52/99/51 50/98/50 61/129/68 62/130/66
f 56/107/55 54/106/53 63/131/67 64/132/59
f 50/121/50 60/120/61 66/133/63 61/134/68
f 64/132/59 63/131/67 69/135/69 70/136/70
f 62/130/66 61/129/68 67/137/71 68/138/72
f 61/134/68 66/133/63 72/139/65 67/140/71
f 65/114/60 64/113/59 70/141/70 71/142/64
f 63/128/67 62/127/66 68/143/72 69/144/69
f 73/145/73 74/146/74 76/147/75 75/148/76
f 75/149/76 76/150/75 78/151/77 77/152/78
f 77/153/78 78/154/77 80/155/79 79/156/80
f 79/157/80 80/158/79 82/159/81 81/160/82
f 82/159/81 80/158/79 88/161/83 89/162/84
f 81/163/82 82/164/81 84/165/85 83/166/86
f 83/167/86 84/168/85 74/169/74 73/170/73
f 90/171/87 89/172/84 95/173/88 96/174/89
f 78/151/77 76/150/75 86/175/90 87/176/91
f 84/165/85 82/164/81 89/172/84 90/171/87
f 76/147/75 74/146/74 85/177/92 86/178/90
f 80/155/79 78/154/77 87/179/91 88/180/83
f 74/169/74 84/168/85 90/181/87 85/182/92
f 88/180/83 87/179/91 93/183/93 94/184/94
f 86/178/90 85/177/92 91/185/95 92/186/96
f 85/182/92 90/181/87 96/187/89 91/188/95
f 89/162/84 88/161/83 94/189/94 95/190/88
f 87/176/91 86/175/90 92/191/96 93/192/93
f 1/193/1 3/194/4 5/195/6 7/196/8 9/197/10 11/198/14
