<?xml version="1.0" standalone="no"?>
<!DOCTYPE svg PUBLIC "-//W3C//DTD SVG 1.1//EN" 
  "http://www.w3.org/Graphics/SVG/1.1/DTD/svg11.dtd">
<svg width="64" height="64" viewBox="0 0 64 64"
     xmlns="http://www.w3.org/2000/svg" version="1.1">
<desc>'shield.blend', Cylinder, (Blender 2.78 (sub 0))</desc>
<polygon stroke="black" stroke-width="1" fill="rgb(204, 204, 204)" fill-opacity="0.25" points="2.000,7.000 6.000,19.000 28.000,19.000 32.000,7.000 " />
<polygon stroke="black" stroke-width="1" fill="rgb(204, 204, 204)" fill-opacity="0.25" points="2.000,7.000 6.000,19.000 28.000,19.000 32.000,7.000 " />
<polygon stroke="black" stroke-width="1" fill="rgb(204, 204, 204)" fill-opacity="0.25" points="2.000,7.000 6.000,19.000 28.000,19.000 32.000,7.000 " />
<polygon stroke="black" stroke-width="1" fill="rgb(204, 204, 204)" fill-opacity="0.25" points="2.000,7.000 6.000,19.000 28.000,19.000 32.000,7.000 " />
<polygon stroke="black" stroke-width="1" fill="rgb(204, 204, 204)" fill-opacity="0.25" points="2.000,7.000 6.000,19.000 28.000,19.000 32.000,7.000 " />
<polygon stroke="black" stroke-width="1" fill="rgb(204, 204, 204)" fill-opacity="0.25" points="2.000,7.000 6.000,19.000 28.000,19.000 32.000,7.000 " />
<polygon stroke="black" stroke-width="1" fill="rgb(204, 204, 204)" fill-opacity="0.25" points="56.000,5.000 47.000,1.000 37.000,5.000 33.000,15.000 37.000,25.000 47.000,29.000 57.000,25.000 61.000,15.000 " />
<polygon stroke="black" stroke-width="1" fill="rgb(204, 204, 204)" fill-opacity="0.25" points="2.000,7.000 6.000,19.000 28.000,19.000 32.000,7.000 " />
<polygon stroke="black" stroke-width="1" fill="rgb(204, 204, 204)" fill-opacity="0.25" points="2.000,7.000 6.000,19.000 28.000,19.000 32.000,7.000 " />
<polygon stroke="black" stroke-width="1" fill="rgb(204, 204, 204)" fill-opacity="0.25" points="41.000,43.000 36.000,29.000 21.000,24.000 7.000,29.000 2.000,44.000 7.000,58.000 22.000,63.000 36.000,58.000 " />
<polygon stroke="black" stroke-width="1" fill="rgb(204, 204, 204)" fill-opacity="0.25" points="60.000,30.000 54.000,30.000 54.000,41.000 60.000,41.000 " />
<polygon stroke="black" stroke-width="1" fill="rgb(204, 204, 204)" fill-opacity="0.25" points="0.000,64.000 0.000,64.000 0.000,64.000 0.000,64.000 " />
<polygon stroke="black" stroke-width="1" fill="rgb(204, 204, 204)" fill-opacity="0.25" points="60.000,41.000 54.000,41.000 54.000,50.000 60.000,50.000 " />
<polygon stroke="black" stroke-width="1" fill="rgb(204, 204, 204)" fill-opacity="0.25" points="0.000,64.000 0.000,64.000 0.000,64.000 0.000,64.000 " />
<polygon stroke="black" stroke-width="1" fill="rgb(204, 204, 204)" fill-opacity="0.25" points="0.000,64.000 0.000,64.000 0.000,64.000 0.000,64.000 " />
<polygon stroke="black" stroke-width="1" fill="rgb(204, 204, 204)" fill-opacity="0.25" points="0.000,64.000 0.000,64.000 0.000,64.000 0.000,64.000 " />
<polygon stroke="black" stroke-width="1" fill="rgb(204, 204, 204)" fill-opacity="0.25" points="61.000,54.000 54.000,54.000 54.000,62.000 61.000,62.000 " />
<polygon stroke="black" stroke-width="1" fill="rgb(204, 204, 204)" fill-opacity="0.25" points="54.000,54.000 54.000,62.000 61.000,62.000 61.000,54.000 " />
<polygon stroke="black" stroke-width="1" fill="rgb(204, 204, 204)" fill-opacity="0.25" points="0.000,64.000 0.000,64.000 0.000,64.000 0.000,64.000 " />
<polygon stroke="black" stroke-width="1" fill="rgb(204, 204, 204)" fill-opacity="0.25" points="0.000,64.000 0.000,64.000 0.000,64.000 0.000,64.000 " />
<polygon stroke="black" stroke-width="1" fill="rgb(204, 204, 204)" fill-opacity="0.25" points="0.000,64.000 0.000,64.000 0.000,64.000 0.000,64.000 " />
<polygon stroke="black" stroke-width="1" fill="rgb(204, 204, 204)" fill-opacity="0.25" points="0.000,64.000 0.000,64.000 0.000,64.000 0.000,64.000 " />
<polygon stroke="black" stroke-width="1" fill="rgb(204, 204, 204)" fill-opacity="0.25" points="0.000,64.000 0.000,64.000 0.000,64.000 0.000,64.000 " />
<polygon stroke="black" stroke-width="1" fill="rgb(204, 204, 204)" fill-opacity="0.25" points="0.000,64.000 0.000,64.000 0.000,64.000 0.000,64.000 " />
<polygon stroke="black" stroke-width="1" fill="rgb(204, 204, 204)" fill-opacity="0.25" points="0.000,64.000 0.000,64.000 0.000,64.000 " />
<polygon stroke="black" stroke-width="1" fill="rgb(204, 204, 204)" fill-opacity="0.25" points="0.000,64.000 0.000,64.000 0.000,64.000 " />
<polygon stroke="black" stroke-width="1" fill="rgb(204, 204, 204)" fill-opacity="0.25" points="0.000,64.000 0.000,64.000 0.000,64.000 " />
<polygon stroke="black" stroke-width="1" fill="rgb(204, 204, 204)" fill-opacity="0.25" points="0.000,64.000 0.000,64.000 0.000,64.000 " />
<polygon stroke="black" stroke-width="1" fill="rgb(204, 204, 204)" fill-opacity="0.25" points="0.000,64.000 0.000,64.000 0.000,64.000 " />
<polygon stroke="black" stroke-width="1" fill="rgb(204, 204, 204)" fill-opacity="0.25" points="0.000,64.000 0.000,64.000 0.000,64.000 " />
<polygon stroke="black" stroke-width="1" fill="rgb(204, 204, 204)" fill-opacity="0.25" points="52.000,61.000 52.000,55.000 42.000,55.000 39.000,58.000 42.000,61.000 " />
<polygon stroke="black" stroke-width="1" fill="rgb(204, 204, 204)" fill-opacity="0.25" points="0.000,64.000 0.000,64.000 0.000,64.000 0.000,64.000 " />
<polygon stroke="black" stroke-width="1" fill="rgb(204, 204, 204)" fill-opacity="0.25" points="0.000,64.000 0.000,64.000 0.000,64.000 0.000,64.000 " />
<polygon stroke="black" stroke-width="1" fill="rgb(204, 204, 204)" fill-opacity="0.25" points="0.000,64.000 0.000,64.000 0.000,64.000 0.000,64.000 " />
<polygon stroke="black" stroke-width="1" fill="rgb(204, 204, 204)" fill-opacity="0.25" points="0.000,64.000 0.000,64.000 0.000,64.000 0.000,64.000 " />
<polygon stroke="black" stroke-width="1" fill="rgb(204, 204, 204)" fill-opacity="0.25" points="39.000,58.000 42.000,61.000 52.000,61.000 52.000,55.000 42.000,55.000 " />

</svg>
